<?xml version="1.0" standalone="yes"?>

<svg width="182mm" height="112mm" viewBox="0 0 182 112" version="1.1"
xmlns="http://www.w3.org/2000/svg" style="stroke-linecap:round">
  <path d="M114.071,15.9338 L124.317,15.9338" style="stroke:rgb(0,0,0);stroke-width:0.3;fill:none" />
  <path d="M124.317,15.9338 L124.317,36.4275" style="stroke:rgb(0,0,0);stroke-width:0.3;fill:none" />
  <path d="M124.317,36.4275 L114.071,36.4275" style="stroke:rgb(0,0,0);stroke-width:0.3;fill:none" />
  <path d="M114.071,36.4275 L114.071,15.9338" style="stroke:rgb(0,0,0);stroke-width:0.3;fill:none" />
  <path d="M114.071,15.9338 L124.317,15.9338 L124.317,36.4275 L114.071,36.4275 L114.071,15.9338 " style="stroke:none;fill:rgb(0,0,255)" />
  <path d="M114.071,15.9338 L124.317,15.9338" style="stroke:rgb(0,0,0);stroke-width:0.3;fill:none" />
  <path d="M114.071,15.9338 L114.071,36.4275" style="stroke:rgb(0,0,0);stroke-width:0.3;fill:none" />
  <path d="M124.317,15.9338 L134.564,15.9338" style="stroke:rgb(0,0,0);stroke-width:0.3;fill:none" />
  <path d="M134.564,15.9338 L134.564,36.4275" style="stroke:rgb(0,0,0);stroke-width:0.3;fill:none" />
  <path d="M134.564,36.4275 L124.317,36.4275" style="stroke:rgb(0,0,0);stroke-width:0.3;fill:none" />
  <path d="M124.317,36.4275 L124.317,15.9338" style="stroke:rgb(0,0,0);stroke-width:0.3;fill:none" />
  <path d="M124.317,15.9338 L134.564,15.9338 L134.564,36.4275 L124.317,36.4275 L124.317,15.9338 " style="stroke:none;fill:rgb(0,0,255)" />
  <path d="M124.317,15.9338 L134.564,15.9338" style="stroke:rgb(0,0,0);stroke-width:0.3;fill:none" />
  <path d="M124.317,15.9338 L124.317,36.4275" style="stroke:rgb(0,0,0);stroke-width:0.3;fill:none" />
  <path d="M134.564,15.9338 L144.811,15.9338" style="stroke:rgb(0,0,0);stroke-width:0.3;fill:none" />
  <path d="M144.811,15.9338 L144.811,36.4275" style="stroke:rgb(0,0,0);stroke-width:0.3;fill:none" />
  <path d="M144.811,36.4275 L134.564,36.4275" style="stroke:rgb(0,0,0);stroke-width:0.3;fill:none" />
  <path d="M134.564,36.4275 L134.564,15.9338" style="stroke:rgb(0,0,0);stroke-width:0.3;fill:none" />
  <path d="M134.564,15.9338 L144.811,15.9338 L144.811,36.4275 L134.564,36.4275 L134.564,15.9338 " style="stroke:none;fill:rgb(0,0,255)" />
  <path d="M134.564,15.9338 L144.811,15.9338" style="stroke:rgb(0,0,0);stroke-width:0.3;fill:none" />
  <path d="M134.564,15.9338 L134.564,36.4275" style="stroke:rgb(0,0,0);stroke-width:0.3;fill:none" />
  <path d="M144.811,15.9338 L155.058,15.9338" style="stroke:rgb(0,0,0);stroke-width:0.3;fill:none" />
  <path d="M155.058,15.9338 L155.058,36.4275" style="stroke:rgb(0,0,0);stroke-width:0.3;fill:none" />
  <path d="M155.058,36.4275 L144.811,36.4275" style="stroke:rgb(0,0,0);stroke-width:0.3;fill:none" />
  <path d="M144.811,36.4275 L144.811,15.9338" style="stroke:rgb(0,0,0);stroke-width:0.3;fill:none" />
  <path d="M144.811,15.9338 L155.058,15.9338 L155.058,36.4275 L144.811,36.4275 L144.811,15.9338 " style="stroke:none;fill:rgb(0,0,255)" />
  <path d="M144.811,15.9338 L155.058,15.9338" style="stroke:rgb(0,0,0);stroke-width:0.3;fill:none" />
  <path d="M144.811,15.9338 L144.811,36.4275" style="stroke:rgb(0,0,0);stroke-width:0.3;fill:none" />
  <path d="M114.071,67.168 L124.317,67.168" style="stroke:rgb(0,0,0);stroke-width:0.3;fill:none" />
  <path d="M124.317,67.168 L124.317,87.6617" style="stroke:rgb(0,0,0);stroke-width:0.3;fill:none" />
  <path d="M124.317,87.6617 L114.071,87.6617" style="stroke:rgb(0,0,0);stroke-width:0.3;fill:none" />
  <path d="M114.071,87.6617 L114.071,67.168" style="stroke:rgb(0,0,0);stroke-width:0.3;fill:none" />
  <path d="M114.071,67.168 L124.317,67.168 L124.317,87.6617 L114.071,87.6617 L114.071,67.168 " style="stroke:none;fill:rgb(0,0,255)" />
  <path d="M114.071,67.168 L124.317,67.168" style="stroke:rgb(0,0,0);stroke-width:0.3;fill:none" />
  <path d="M114.071,67.168 L114.071,87.6617" style="stroke:rgb(0,0,0);stroke-width:0.3;fill:none" />
  <path d="M124.317,67.168 L134.564,67.168" style="stroke:rgb(0,0,0);stroke-width:0.3;fill:none" />
  <path d="M134.564,67.168 L134.564,87.6617" style="stroke:rgb(0,0,0);stroke-width:0.3;fill:none" />
  <path d="M134.564,87.6617 L124.317,87.6617" style="stroke:rgb(0,0,0);stroke-width:0.3;fill:none" />
  <path d="M124.317,87.6617 L124.317,67.168" style="stroke:rgb(0,0,0);stroke-width:0.3;fill:none" />
  <path d="M124.317,67.168 L134.564,67.168 L134.564,87.6617 L124.317,87.6617 L124.317,67.168 " style="stroke:none;fill:rgb(0,0,255)" />
  <path d="M124.317,67.168 L134.564,67.168" style="stroke:rgb(0,0,0);stroke-width:0.3;fill:none" />
  <path d="M124.317,67.168 L124.317,87.6617" style="stroke:rgb(0,0,0);stroke-width:0.3;fill:none" />
  <path d="M134.564,67.168 L144.811,67.168" style="stroke:rgb(0,0,0);stroke-width:0.3;fill:none" />
  <path d="M144.811,67.168 L144.811,87.6617" style="stroke:rgb(0,0,0);stroke-width:0.3;fill:none" />
  <path d="M144.811,87.6617 L134.564,87.6617" style="stroke:rgb(0,0,0);stroke-width:0.3;fill:none" />
  <path d="M134.564,87.6617 L134.564,67.168" style="stroke:rgb(0,0,0);stroke-width:0.3;fill:none" />
  <path d="M134.564,67.168 L144.811,67.168 L144.811,87.6617 L134.564,87.6617 L134.564,67.168 " style="stroke:none;fill:rgb(0,0,255)" />
  <path d="M134.564,67.168 L144.811,67.168" style="stroke:rgb(0,0,0);stroke-width:0.3;fill:none" />
  <path d="M134.564,67.168 L134.564,87.6617" style="stroke:rgb(0,0,0);stroke-width:0.3;fill:none" />
  <path d="M144.811,67.168 L155.058,67.168" style="stroke:rgb(0,0,0);stroke-width:0.3;fill:none" />
  <path d="M155.058,67.168 L155.058,87.6617" style="stroke:rgb(0,0,0);stroke-width:0.3;fill:none" />
  <path d="M155.058,87.6617 L144.811,87.6617" style="stroke:rgb(0,0,0);stroke-width:0.3;fill:none" />
  <path d="M144.811,87.6617 L144.811,67.168" style="stroke:rgb(0,0,0);stroke-width:0.3;fill:none" />
  <path d="M144.811,67.168 L155.058,67.168 L155.058,87.6617 L144.811,87.6617 L144.811,67.168 " style="stroke:none;fill:rgb(0,0,255)" />
  <path d="M144.811,67.168 L155.058,67.168" style="stroke:rgb(0,0,0);stroke-width:0.3;fill:none" />
  <path d="M144.811,67.168 L144.811,87.6617" style="stroke:rgb(0,0,0);stroke-width:0.3;fill:none" />
  <path d="M1.35515,15.9338 L21.8489,15.9338" style="stroke:rgb(0,0,0);stroke-width:0.3;fill:none" />
  <path d="M21.8489,15.9338 L21.8489,56.9212" style="stroke:rgb(0,0,0);stroke-width:0.3;fill:none" />
  <path d="M21.8489,56.9212 L1.35515,56.9212" style="stroke:rgb(0,0,0);stroke-width:0.3;fill:none" />
  <path d="M1.35515,56.9212 L1.35515,15.9338" style="stroke:rgb(0,0,0);stroke-width:0.3;fill:none" />
  <path d="M17.8649,77.8739 L6.0605,77.8739" style="stroke:rgb(0,0,0);stroke-width:0.3;fill:none" />
  <path d="M6.0605,77.8739 L6.0605,66.463" style="stroke:rgb(0,0,0);stroke-width:0.3;fill:none" />
  <path d="M6.0605,66.463 L17.8649,66.463" style="stroke:rgb(0,0,0);stroke-width:0.3;fill:none" />
  <path d="M17.8649,66.463 L17.8649,77.8739" style="stroke:rgb(0,0,0);stroke-width:0.3;fill:none" />
  <path d="M17.8649,66.463 L6.0605,77.8739" style="stroke:rgb(0,0,0);stroke-width:0.3;fill:none" />
  <path d="M7.50326,68.1927 L11.602,68.1927" style="stroke:rgb(0,0,0);stroke-width:0.3;fill:none" />
  <path d="M7.50326,69.2174 L11.602,69.2174" style="stroke:rgb(0,0,0);stroke-width:0.3;fill:none" />
  <path d="M12.6267,74.3408 L13.0499,73.9411" style="stroke:rgb(0,0,0);stroke-width:0.3;fill:none" />
  <path d="M13.0499,73.9411 L13.4273,73.6306" style="stroke:rgb(0,0,0);stroke-width:0.3;fill:none" />
  <path d="M13.4273,73.6306 L13.7619,73.4012" style="stroke:rgb(0,0,0);stroke-width:0.3;fill:none" />
  <path d="M13.7619,73.4012 L14.0565,73.2445" style="stroke:rgb(0,0,0);stroke-width:0.3;fill:none" />
  <path d="M14.0565,73.2445 L14.3142,73.1522" style="stroke:rgb(0,0,0);stroke-width:0.3;fill:none" />
  <path d="M14.3142,73.1522 L14.5379,73.116" style="stroke:rgb(0,0,0);stroke-width:0.3;fill:none" />
  <path d="M14.5379,73.116 L14.7306,73.1278" style="stroke:rgb(0,0,0);stroke-width:0.3;fill:none" />
  <path d="M14.7306,73.1278 L14.8951,73.1792" style="stroke:rgb(0,0,0);stroke-width:0.3;fill:none" />
  <path d="M14.8951,73.1792 L15.0346,73.2619" style="stroke:rgb(0,0,0);stroke-width:0.3;fill:none" />
  <path d="M15.0346,73.2619 L15.1518,73.3677" style="stroke:rgb(0,0,0);stroke-width:0.3;fill:none" />
  <path d="M15.1518,73.3677 L15.2499,73.4883" style="stroke:rgb(0,0,0);stroke-width:0.3;fill:none" />
  <path d="M15.2499,73.4883 L15.3317,73.6154" style="stroke:rgb(0,0,0);stroke-width:0.3;fill:none" />
  <path d="M15.3317,73.6154 L15.4002,73.7407" style="stroke:rgb(0,0,0);stroke-width:0.3;fill:none" />
  <path d="M15.4002,73.7407 L15.4583,73.8559" style="stroke:rgb(0,0,0);stroke-width:0.3;fill:none" />
  <path d="M15.4583,73.8559 L15.5084,73.9562" style="stroke:rgb(0,0,0);stroke-width:0.3;fill:none" />
  <path d="M15.5084,73.9562 L15.5516,74.0426" style="stroke:rgb(0,0,0);stroke-width:0.3;fill:none" />
  <path d="M15.5516,74.0426 L15.5889,74.1172" style="stroke:rgb(0,0,0);stroke-width:0.3;fill:none" />
  <path d="M15.5889,74.1172 L15.6213,74.1819" style="stroke:rgb(0,0,0);stroke-width:0.3;fill:none" />
  <path d="M15.6213,74.1819 L15.6497,74.2388" style="stroke:rgb(0,0,0);stroke-width:0.3;fill:none" />
  <path d="M15.6497,74.2388 L15.6752,74.2898" style="stroke:rgb(0,0,0);stroke-width:0.3;fill:none" />
  <path d="M15.6752,74.2898 L15.6987,74.3368" style="stroke:rgb(0,0,0);stroke-width:0.3;fill:none" />
  <path d="M15.6987,74.3368 L15.7212,74.3818" style="stroke:rgb(0,0,0);stroke-width:0.3;fill:none" />
  <path d="M15.7212,74.3818 L15.7438,74.4269" style="stroke:rgb(0,0,0);stroke-width:0.3;fill:none" />
  <path d="M15.7438,74.4269 L15.7673,74.4739" style="stroke:rgb(0,0,0);stroke-width:0.3;fill:none" />
  <path d="M15.7673,74.4739 L15.7927,74.5248" style="stroke:rgb(0,0,0);stroke-width:0.3;fill:none" />
  <path d="M15.7927,74.5248 L15.8212,74.5817" style="stroke:rgb(0,0,0);stroke-width:0.3;fill:none" />
  <path d="M15.8212,74.5817 L15.8536,74.6464" style="stroke:rgb(0,0,0);stroke-width:0.3;fill:none" />
  <path d="M15.8536,74.6464 L15.8908,74.721" style="stroke:rgb(0,0,0);stroke-width:0.3;fill:none" />
  <path d="M15.8908,74.721 L15.9334,74.8048" style="stroke:rgb(0,0,0);stroke-width:0.3;fill:none" />
  <path d="M15.9334,74.8048 L15.9811,74.8954" style="stroke:rgb(0,0,0);stroke-width:0.3;fill:none" />
  <path d="M15.9811,74.8954 L16.0337,74.9899" style="stroke:rgb(0,0,0);stroke-width:0.3;fill:none" />
  <path d="M16.0337,74.9899 L16.0911,75.0856" style="stroke:rgb(0,0,0);stroke-width:0.3;fill:none" />
  <path d="M16.0911,75.0856 L16.153,75.1797" style="stroke:rgb(0,0,0);stroke-width:0.3;fill:none" />
  <path d="M16.153,75.1797 L16.2192,75.2695" style="stroke:rgb(0,0,0);stroke-width:0.3;fill:none" />
  <path d="M16.2192,75.2695 L16.2896,75.3522" style="stroke:rgb(0,0,0);stroke-width:0.3;fill:none" />
  <path d="M16.2896,75.3522 L16.3639,75.425" style="stroke:rgb(0,0,0);stroke-width:0.3;fill:none" />
  <path d="M16.3639,75.425 L16.4419,75.4852" style="stroke:rgb(0,0,0);stroke-width:0.3;fill:none" />
  <path d="M16.4419,75.4852 L16.5235,75.5301" style="stroke:rgb(0,0,0);stroke-width:0.3;fill:none" />
  <path d="M16.5235,75.5301 L16.6085,75.5568" style="stroke:rgb(0,0,0);stroke-width:0.3;fill:none" />
  <path d="M16.6085,75.5568 L16.6966,75.5626" style="stroke:rgb(0,0,0);stroke-width:0.3;fill:none" />
  <path d="M16.6966,75.5626 L16.7876,75.5448" style="stroke:rgb(0,0,0);stroke-width:0.3;fill:none" />
  <path d="M16.7876,75.5448 L16.8814,75.501" style="stroke:rgb(0,0,0);stroke-width:0.3;fill:none" />
  <path d="M16.8814,75.501 L16.9768,75.4335" style="stroke:rgb(0,0,0);stroke-width:0.3;fill:none" />
  <path d="M16.9768,75.4335 L17.0725,75.3464" style="stroke:rgb(0,0,0);stroke-width:0.3;fill:none" />
  <path d="M17.0725,75.3464 L17.1671,75.2441" style="stroke:rgb(0,0,0);stroke-width:0.3;fill:none" />
  <path d="M17.1671,75.2441 L17.2592,75.131" style="stroke:rgb(0,0,0);stroke-width:0.3;fill:none" />
  <path d="M17.2592,75.131 L17.3475,75.0114" style="stroke:rgb(0,0,0);stroke-width:0.3;fill:none" />
  <path d="M17.3475,75.0114 L17.4306,74.8897" style="stroke:rgb(0,0,0);stroke-width:0.3;fill:none" />
  <path d="M17.4306,74.8897 L17.5071,74.7701" style="stroke:rgb(0,0,0);stroke-width:0.3;fill:none" />
  <path d="M17.5071,74.7701 L17.5756,74.657" style="stroke:rgb(0,0,0);stroke-width:0.3;fill:none" />
  <path d="M17.5756,74.657 L17.6348,74.5547" style="stroke:rgb(0,0,0);stroke-width:0.3;fill:none" />
  <path d="M17.6348,74.5547 L17.6832,74.4677" style="stroke:rgb(0,0,0);stroke-width:0.3;fill:none" />
  <path d="M17.6832,74.4677 L17.7194,74.4001" style="stroke:rgb(0,0,0);stroke-width:0.3;fill:none" />
  <path d="M17.7194,74.4001 L17.7422,74.3564" style="stroke:rgb(0,0,0);stroke-width:0.3;fill:none" />
  <path d="M17.7422,74.3564 L17.7501,74.3408" style="stroke:rgb(0,0,0);stroke-width:0.3;fill:none" />
  <path d="M11.9711,76.091 L12.3943,75.6912" style="stroke:rgb(0,0,0);stroke-width:0.3;fill:none" />
  <path d="M12.3943,75.6912 L12.7717,75.3808" style="stroke:rgb(0,0,0);stroke-width:0.3;fill:none" />
  <path d="M12.7717,75.3808 L13.1063,75.1513" style="stroke:rgb(0,0,0);stroke-width:0.3;fill:none" />
  <path d="M13.1063,75.1513 L13.4009,74.9946" style="stroke:rgb(0,0,0);stroke-width:0.3;fill:none" />
  <path d="M13.4009,74.9946 L13.6586,74.9023" style="stroke:rgb(0,0,0);stroke-width:0.3;fill:none" />
  <path d="M13.6586,74.9023 L13.8823,74.8662" style="stroke:rgb(0,0,0);stroke-width:0.3;fill:none" />
  <path d="M13.8823,74.8662 L14.075,74.878" style="stroke:rgb(0,0,0);stroke-width:0.3;fill:none" />
  <path d="M14.075,74.878 L14.2395,74.9294" style="stroke:rgb(0,0,0);stroke-width:0.3;fill:none" />
  <path d="M14.2395,74.9294 L14.379,75.0121" style="stroke:rgb(0,0,0);stroke-width:0.3;fill:none" />
  <path d="M14.379,75.0121 L14.4962,75.1179" style="stroke:rgb(0,0,0);stroke-width:0.3;fill:none" />
  <path d="M14.4962,75.1179 L14.5943,75.2384" style="stroke:rgb(0,0,0);stroke-width:0.3;fill:none" />
  <path d="M14.5943,75.2384 L14.6761,75.3655" style="stroke:rgb(0,0,0);stroke-width:0.3;fill:none" />
  <path d="M14.6761,75.3655 L14.7445,75.4908" style="stroke:rgb(0,0,0);stroke-width:0.3;fill:none" />
  <path d="M14.7445,75.4908 L14.8027,75.6061" style="stroke:rgb(0,0,0);stroke-width:0.3;fill:none" />
  <path d="M14.8027,75.6061 L14.8528,75.7063" style="stroke:rgb(0,0,0);stroke-width:0.3;fill:none" />
  <path d="M14.8528,75.7063 L14.896,75.7927" style="stroke:rgb(0,0,0);stroke-width:0.3;fill:none" />
  <path d="M14.896,75.7927 L14.9333,75.8673" style="stroke:rgb(0,0,0);stroke-width:0.3;fill:none" />
  <path d="M14.9333,75.8673 L14.9657,75.9321" style="stroke:rgb(0,0,0);stroke-width:0.3;fill:none" />
  <path d="M14.9657,75.9321 L14.9941,75.989" style="stroke:rgb(0,0,0);stroke-width:0.3;fill:none" />
  <path d="M14.9941,75.989 L15.0196,76.0399" style="stroke:rgb(0,0,0);stroke-width:0.3;fill:none" />
  <path d="M15.0196,76.0399 L15.0431,76.0869" style="stroke:rgb(0,0,0);stroke-width:0.3;fill:none" />
  <path d="M15.0431,76.0869 L15.0656,76.132" style="stroke:rgb(0,0,0);stroke-width:0.3;fill:none" />
  <path d="M15.0656,76.132 L15.0881,76.177" style="stroke:rgb(0,0,0);stroke-width:0.3;fill:none" />
  <path d="M15.0881,76.177 L15.1117,76.224" style="stroke:rgb(0,0,0);stroke-width:0.3;fill:none" />
  <path d="M15.1117,76.224 L15.1371,76.275" style="stroke:rgb(0,0,0);stroke-width:0.3;fill:none" />
  <path d="M15.1371,76.275 L15.1656,76.3318" style="stroke:rgb(0,0,0);stroke-width:0.3;fill:none" />
  <path d="M15.1656,76.3318 L15.1979,76.3966" style="stroke:rgb(0,0,0);stroke-width:0.3;fill:none" />
  <path d="M15.1979,76.3966 L15.2352,76.4711" style="stroke:rgb(0,0,0);stroke-width:0.3;fill:none" />
  <path d="M15.2352,76.4711 L15.2778,76.555" style="stroke:rgb(0,0,0);stroke-width:0.3;fill:none" />
  <path d="M15.2778,76.555 L15.3255,76.6455" style="stroke:rgb(0,0,0);stroke-width:0.3;fill:none" />
  <path d="M15.3255,76.6455 L15.3781,76.7401" style="stroke:rgb(0,0,0);stroke-width:0.3;fill:none" />
  <path d="M15.3781,76.7401 L15.4355,76.8357" style="stroke:rgb(0,0,0);stroke-width:0.3;fill:none" />
  <path d="M15.4355,76.8357 L15.4974,76.9299" style="stroke:rgb(0,0,0);stroke-width:0.3;fill:none" />
  <path d="M15.4974,76.9299 L15.5636,77.0196" style="stroke:rgb(0,0,0);stroke-width:0.3;fill:none" />
  <path d="M15.5636,77.0196 L15.6339,77.1023" style="stroke:rgb(0,0,0);stroke-width:0.3;fill:none" />
  <path d="M15.6339,77.1023 L15.7083,77.1752" style="stroke:rgb(0,0,0);stroke-width:0.3;fill:none" />
  <path d="M15.7083,77.1752 L15.7863,77.2354" style="stroke:rgb(0,0,0);stroke-width:0.3;fill:none" />
  <path d="M15.7863,77.2354 L15.8679,77.2802" style="stroke:rgb(0,0,0);stroke-width:0.3;fill:none" />
  <path d="M15.8679,77.2802 L15.9528,77.3069" style="stroke:rgb(0,0,0);stroke-width:0.3;fill:none" />
  <path d="M15.9528,77.3069 L16.0409,77.3128" style="stroke:rgb(0,0,0);stroke-width:0.3;fill:none" />
  <path d="M16.0409,77.3128 L16.132,77.2949" style="stroke:rgb(0,0,0);stroke-width:0.3;fill:none" />
  <path d="M16.132,77.2949 L16.2257,77.2512" style="stroke:rgb(0,0,0);stroke-width:0.3;fill:none" />
  <path d="M16.2257,77.2512 L16.3211,77.1836" style="stroke:rgb(0,0,0);stroke-width:0.3;fill:none" />
  <path d="M16.3211,77.1836 L16.4168,77.0965" style="stroke:rgb(0,0,0);stroke-width:0.3;fill:none" />
  <path d="M16.4168,77.0965 L16.5115,76.9943" style="stroke:rgb(0,0,0);stroke-width:0.3;fill:none" />
  <path d="M16.5115,76.9943 L16.6036,76.8812" style="stroke:rgb(0,0,0);stroke-width:0.3;fill:none" />
  <path d="M16.6036,76.8812 L16.6919,76.7616" style="stroke:rgb(0,0,0);stroke-width:0.3;fill:none" />
  <path d="M16.6919,76.7616 L16.775,76.6398" style="stroke:rgb(0,0,0);stroke-width:0.3;fill:none" />
  <path d="M16.775,76.6398 L16.8515,76.5202" style="stroke:rgb(0,0,0);stroke-width:0.3;fill:none" />
  <path d="M16.8515,76.5202 L16.92,76.4071" style="stroke:rgb(0,0,0);stroke-width:0.3;fill:none" />
  <path d="M16.92,76.4071 L16.9791,76.3049" style="stroke:rgb(0,0,0);stroke-width:0.3;fill:none" />
  <path d="M16.9791,76.3049 L17.0275,76.2178" style="stroke:rgb(0,0,0);stroke-width:0.3;fill:none" />
  <path d="M17.0275,76.2178 L17.0638,76.1502" style="stroke:rgb(0,0,0);stroke-width:0.3;fill:none" />
  <path d="M17.0638,76.1502 L17.0866,76.1065" style="stroke:rgb(0,0,0);stroke-width:0.3;fill:none" />
  <path d="M17.0866,76.1065 L17.0945,76.091" style="stroke:rgb(0,0,0);stroke-width:0.3;fill:none" />
  <path d="M11.602,56.9212 L11.602,66.463" style="stroke:rgb(0,0,0);stroke-width:0.3;fill:none" />
  <path d="M63.1565,15.9338 L83.6502,15.9338" style="stroke:rgb(0,0,0);stroke-width:0.3;fill:none" />
  <path d="M83.6502,15.9338 L83.6502,56.9212" style="stroke:rgb(0,0,0);stroke-width:0.3;fill:none" />
  <path d="M83.6502,56.9212 L63.1565,56.9212" style="stroke:rgb(0,0,0);stroke-width:0.3;fill:none" />
  <path d="M63.1565,56.9212 L63.1565,15.9338" style="stroke:rgb(0,0,0);stroke-width:0.3;fill:none" />
  <path d="M79.6662,77.8739 L67.8619,77.8739" style="stroke:rgb(0,0,0);stroke-width:0.3;fill:none" />
  <path d="M67.8619,77.8739 L67.8619,66.463" style="stroke:rgb(0,0,0);stroke-width:0.3;fill:none" />
  <path d="M67.8619,66.463 L79.6662,66.463" style="stroke:rgb(0,0,0);stroke-width:0.3;fill:none" />
  <path d="M79.6662,66.463 L79.6662,77.8739" style="stroke:rgb(0,0,0);stroke-width:0.3;fill:none" />
  <path d="M79.6662,66.463 L67.8619,77.8739" style="stroke:rgb(0,0,0);stroke-width:0.3;fill:none" />
  <path d="M69.3046,68.1927 L73.4034,68.1927" style="stroke:rgb(0,0,0);stroke-width:0.3;fill:none" />
  <path d="M69.3046,69.2174 L73.4034,69.2174" style="stroke:rgb(0,0,0);stroke-width:0.3;fill:none" />
  <path d="M74.428,74.3408 L74.8513,73.9411" style="stroke:rgb(0,0,0);stroke-width:0.3;fill:none" />
  <path d="M74.8513,73.9411 L75.2287,73.6306" style="stroke:rgb(0,0,0);stroke-width:0.3;fill:none" />
  <path d="M75.2287,73.6306 L75.5632,73.4012" style="stroke:rgb(0,0,0);stroke-width:0.3;fill:none" />
  <path d="M75.5632,73.4012 L75.8579,73.2445" style="stroke:rgb(0,0,0);stroke-width:0.3;fill:none" />
  <path d="M75.8579,73.2445 L76.1156,73.1522" style="stroke:rgb(0,0,0);stroke-width:0.3;fill:none" />
  <path d="M76.1156,73.1522 L76.3393,73.116" style="stroke:rgb(0,0,0);stroke-width:0.3;fill:none" />
  <path d="M76.3393,73.116 L76.5319,73.1278" style="stroke:rgb(0,0,0);stroke-width:0.3;fill:none" />
  <path d="M76.5319,73.1278 L76.6965,73.1792" style="stroke:rgb(0,0,0);stroke-width:0.3;fill:none" />
  <path d="M76.6965,73.1792 L76.8359,73.2619" style="stroke:rgb(0,0,0);stroke-width:0.3;fill:none" />
  <path d="M76.8359,73.2619 L76.9532,73.3677" style="stroke:rgb(0,0,0);stroke-width:0.3;fill:none" />
  <path d="M76.9532,73.3677 L77.0512,73.4883" style="stroke:rgb(0,0,0);stroke-width:0.3;fill:none" />
  <path d="M77.0512,73.4883 L77.133,73.6154" style="stroke:rgb(0,0,0);stroke-width:0.3;fill:none" />
  <path d="M77.133,73.6154 L77.2015,73.7407" style="stroke:rgb(0,0,0);stroke-width:0.3;fill:none" />
  <path d="M77.2015,73.7407 L77.2596,73.8559" style="stroke:rgb(0,0,0);stroke-width:0.3;fill:none" />
  <path d="M77.2596,73.8559 L77.3098,73.9562" style="stroke:rgb(0,0,0);stroke-width:0.3;fill:none" />
  <path d="M77.3098,73.9562 L77.353,74.0426" style="stroke:rgb(0,0,0);stroke-width:0.3;fill:none" />
  <path d="M77.353,74.0426 L77.3903,74.1172" style="stroke:rgb(0,0,0);stroke-width:0.3;fill:none" />
  <path d="M77.3903,74.1172 L77.4227,74.1819" style="stroke:rgb(0,0,0);stroke-width:0.3;fill:none" />
  <path d="M77.4227,74.1819 L77.4511,74.2388" style="stroke:rgb(0,0,0);stroke-width:0.3;fill:none" />
  <path d="M77.4511,74.2388 L77.4766,74.2898" style="stroke:rgb(0,0,0);stroke-width:0.3;fill:none" />
  <path d="M77.4766,74.2898 L77.5001,74.3368" style="stroke:rgb(0,0,0);stroke-width:0.3;fill:none" />
  <path d="M77.5001,74.3368 L77.5226,74.3818" style="stroke:rgb(0,0,0);stroke-width:0.3;fill:none" />
  <path d="M77.5226,74.3818 L77.5451,74.4269" style="stroke:rgb(0,0,0);stroke-width:0.3;fill:none" />
  <path d="M77.5451,74.4269 L77.5686,74.4739" style="stroke:rgb(0,0,0);stroke-width:0.3;fill:none" />
  <path d="M77.5686,74.4739 L77.5941,74.5248" style="stroke:rgb(0,0,0);stroke-width:0.3;fill:none" />
  <path d="M77.5941,74.5248 L77.6225,74.5817" style="stroke:rgb(0,0,0);stroke-width:0.3;fill:none" />
  <path d="M77.6225,74.5817 L77.6549,74.6464" style="stroke:rgb(0,0,0);stroke-width:0.3;fill:none" />
  <path d="M77.6549,74.6464 L77.6922,74.721" style="stroke:rgb(0,0,0);stroke-width:0.3;fill:none" />
  <path d="M77.6922,74.721 L77.7348,74.8048" style="stroke:rgb(0,0,0);stroke-width:0.3;fill:none" />
  <path d="M77.7348,74.8048 L77.7825,74.8954" style="stroke:rgb(0,0,0);stroke-width:0.3;fill:none" />
  <path d="M77.7825,74.8954 L77.8351,74.9899" style="stroke:rgb(0,0,0);stroke-width:0.3;fill:none" />
  <path d="M77.8351,74.9899 L77.8924,75.0856" style="stroke:rgb(0,0,0);stroke-width:0.3;fill:none" />
  <path d="M77.8924,75.0856 L77.9543,75.1797" style="stroke:rgb(0,0,0);stroke-width:0.3;fill:none" />
  <path d="M77.9543,75.1797 L78.0205,75.2695" style="stroke:rgb(0,0,0);stroke-width:0.3;fill:none" />
  <path d="M78.0205,75.2695 L78.0909,75.3522" style="stroke:rgb(0,0,0);stroke-width:0.3;fill:none" />
  <path d="M78.0909,75.3522 L78.1652,75.425" style="stroke:rgb(0,0,0);stroke-width:0.3;fill:none" />
  <path d="M78.1652,75.425 L78.2433,75.4852" style="stroke:rgb(0,0,0);stroke-width:0.3;fill:none" />
  <path d="M78.2433,75.4852 L78.3249,75.5301" style="stroke:rgb(0,0,0);stroke-width:0.3;fill:none" />
  <path d="M78.3249,75.5301 L78.4098,75.5568" style="stroke:rgb(0,0,0);stroke-width:0.3;fill:none" />
  <path d="M78.4098,75.5568 L78.4979,75.5626" style="stroke:rgb(0,0,0);stroke-width:0.3;fill:none" />
  <path d="M78.4979,75.5626 L78.589,75.5448" style="stroke:rgb(0,0,0);stroke-width:0.3;fill:none" />
  <path d="M78.589,75.5448 L78.6827,75.501" style="stroke:rgb(0,0,0);stroke-width:0.3;fill:none" />
  <path d="M78.6827,75.501 L78.7781,75.4335" style="stroke:rgb(0,0,0);stroke-width:0.3;fill:none" />
  <path d="M78.7781,75.4335 L78.8738,75.3464" style="stroke:rgb(0,0,0);stroke-width:0.3;fill:none" />
  <path d="M78.8738,75.3464 L78.9684,75.2441" style="stroke:rgb(0,0,0);stroke-width:0.3;fill:none" />
  <path d="M78.9684,75.2441 L79.0606,75.131" style="stroke:rgb(0,0,0);stroke-width:0.3;fill:none" />
  <path d="M79.0606,75.131 L79.1489,75.0114" style="stroke:rgb(0,0,0);stroke-width:0.3;fill:none" />
  <path d="M79.1489,75.0114 L79.232,74.8897" style="stroke:rgb(0,0,0);stroke-width:0.3;fill:none" />
  <path d="M79.232,74.8897 L79.3085,74.7701" style="stroke:rgb(0,0,0);stroke-width:0.3;fill:none" />
  <path d="M79.3085,74.7701 L79.377,74.657" style="stroke:rgb(0,0,0);stroke-width:0.3;fill:none" />
  <path d="M79.377,74.657 L79.4361,74.5547" style="stroke:rgb(0,0,0);stroke-width:0.3;fill:none" />
  <path d="M79.4361,74.5547 L79.4845,74.4677" style="stroke:rgb(0,0,0);stroke-width:0.3;fill:none" />
  <path d="M79.4845,74.4677 L79.5208,74.4001" style="stroke:rgb(0,0,0);stroke-width:0.3;fill:none" />
  <path d="M79.5208,74.4001 L79.5436,74.3564" style="stroke:rgb(0,0,0);stroke-width:0.3;fill:none" />
  <path d="M79.5436,74.3564 L79.5515,74.3408" style="stroke:rgb(0,0,0);stroke-width:0.3;fill:none" />
  <path d="M73.7724,76.091 L74.1957,75.6912" style="stroke:rgb(0,0,0);stroke-width:0.3;fill:none" />
  <path d="M74.1957,75.6912 L74.5731,75.3808" style="stroke:rgb(0,0,0);stroke-width:0.3;fill:none" />
  <path d="M74.5731,75.3808 L74.9076,75.1513" style="stroke:rgb(0,0,0);stroke-width:0.3;fill:none" />
  <path d="M74.9076,75.1513 L75.2023,74.9946" style="stroke:rgb(0,0,0);stroke-width:0.3;fill:none" />
  <path d="M75.2023,74.9946 L75.46,74.9023" style="stroke:rgb(0,0,0);stroke-width:0.3;fill:none" />
  <path d="M75.46,74.9023 L75.6837,74.8662" style="stroke:rgb(0,0,0);stroke-width:0.3;fill:none" />
  <path d="M75.6837,74.8662 L75.8763,74.878" style="stroke:rgb(0,0,0);stroke-width:0.3;fill:none" />
  <path d="M75.8763,74.878 L76.0409,74.9294" style="stroke:rgb(0,0,0);stroke-width:0.3;fill:none" />
  <path d="M76.0409,74.9294 L76.1803,75.0121" style="stroke:rgb(0,0,0);stroke-width:0.3;fill:none" />
  <path d="M76.1803,75.0121 L76.2976,75.1179" style="stroke:rgb(0,0,0);stroke-width:0.3;fill:none" />
  <path d="M76.2976,75.1179 L76.3956,75.2384" style="stroke:rgb(0,0,0);stroke-width:0.3;fill:none" />
  <path d="M76.3956,75.2384 L76.4774,75.3655" style="stroke:rgb(0,0,0);stroke-width:0.3;fill:none" />
  <path d="M76.4774,75.3655 L76.5459,75.4908" style="stroke:rgb(0,0,0);stroke-width:0.3;fill:none" />
  <path d="M76.5459,75.4908 L76.604,75.6061" style="stroke:rgb(0,0,0);stroke-width:0.3;fill:none" />
  <path d="M76.604,75.6061 L76.6541,75.7063" style="stroke:rgb(0,0,0);stroke-width:0.3;fill:none" />
  <path d="M76.6541,75.7063 L76.6974,75.7927" style="stroke:rgb(0,0,0);stroke-width:0.3;fill:none" />
  <path d="M76.6974,75.7927 L76.7347,75.8673" style="stroke:rgb(0,0,0);stroke-width:0.3;fill:none" />
  <path d="M76.7347,75.8673 L76.767,75.9321" style="stroke:rgb(0,0,0);stroke-width:0.3;fill:none" />
  <path d="M76.767,75.9321 L76.7955,75.989" style="stroke:rgb(0,0,0);stroke-width:0.3;fill:none" />
  <path d="M76.7955,75.989 L76.8209,76.0399" style="stroke:rgb(0,0,0);stroke-width:0.3;fill:none" />
  <path d="M76.8209,76.0399 L76.8445,76.0869" style="stroke:rgb(0,0,0);stroke-width:0.3;fill:none" />
  <path d="M76.8445,76.0869 L76.867,76.132" style="stroke:rgb(0,0,0);stroke-width:0.3;fill:none" />
  <path d="M76.867,76.132 L76.8895,76.177" style="stroke:rgb(0,0,0);stroke-width:0.3;fill:none" />
  <path d="M76.8895,76.177 L76.913,76.224" style="stroke:rgb(0,0,0);stroke-width:0.3;fill:none" />
  <path d="M76.913,76.224 L76.9385,76.275" style="stroke:rgb(0,0,0);stroke-width:0.3;fill:none" />
  <path d="M76.9385,76.275 L76.9669,76.3318" style="stroke:rgb(0,0,0);stroke-width:0.3;fill:none" />
  <path d="M76.9669,76.3318 L76.9993,76.3966" style="stroke:rgb(0,0,0);stroke-width:0.3;fill:none" />
  <path d="M76.9993,76.3966 L77.0366,76.4711" style="stroke:rgb(0,0,0);stroke-width:0.3;fill:none" />
  <path d="M77.0366,76.4711 L77.0791,76.555" style="stroke:rgb(0,0,0);stroke-width:0.3;fill:none" />
  <path d="M77.0791,76.555 L77.1268,76.6455" style="stroke:rgb(0,0,0);stroke-width:0.3;fill:none" />
  <path d="M77.1268,76.6455 L77.1795,76.7401" style="stroke:rgb(0,0,0);stroke-width:0.3;fill:none" />
  <path d="M77.1795,76.7401 L77.2368,76.8357" style="stroke:rgb(0,0,0);stroke-width:0.3;fill:none" />
  <path d="M77.2368,76.8357 L77.2987,76.9299" style="stroke:rgb(0,0,0);stroke-width:0.3;fill:none" />
  <path d="M77.2987,76.9299 L77.3649,77.0196" style="stroke:rgb(0,0,0);stroke-width:0.3;fill:none" />
  <path d="M77.3649,77.0196 L77.4353,77.1023" style="stroke:rgb(0,0,0);stroke-width:0.3;fill:none" />
  <path d="M77.4353,77.1023 L77.5096,77.1752" style="stroke:rgb(0,0,0);stroke-width:0.3;fill:none" />
  <path d="M77.5096,77.1752 L77.5877,77.2354" style="stroke:rgb(0,0,0);stroke-width:0.3;fill:none" />
  <path d="M77.5877,77.2354 L77.6692,77.2802" style="stroke:rgb(0,0,0);stroke-width:0.3;fill:none" />
  <path d="M77.6692,77.2802 L77.7542,77.3069" style="stroke:rgb(0,0,0);stroke-width:0.3;fill:none" />
  <path d="M77.7542,77.3069 L77.8423,77.3128" style="stroke:rgb(0,0,0);stroke-width:0.3;fill:none" />
  <path d="M77.8423,77.3128 L77.9334,77.2949" style="stroke:rgb(0,0,0);stroke-width:0.3;fill:none" />
  <path d="M77.9334,77.2949 L78.0271,77.2512" style="stroke:rgb(0,0,0);stroke-width:0.3;fill:none" />
  <path d="M78.0271,77.2512 L78.1225,77.1836" style="stroke:rgb(0,0,0);stroke-width:0.3;fill:none" />
  <path d="M78.1225,77.1836 L78.2182,77.0965" style="stroke:rgb(0,0,0);stroke-width:0.3;fill:none" />
  <path d="M78.2182,77.0965 L78.3128,76.9943" style="stroke:rgb(0,0,0);stroke-width:0.3;fill:none" />
  <path d="M78.3128,76.9943 L78.405,76.8812" style="stroke:rgb(0,0,0);stroke-width:0.3;fill:none" />
  <path d="M78.405,76.8812 L78.4933,76.7616" style="stroke:rgb(0,0,0);stroke-width:0.3;fill:none" />
  <path d="M78.4933,76.7616 L78.5764,76.6398" style="stroke:rgb(0,0,0);stroke-width:0.3;fill:none" />
  <path d="M78.5764,76.6398 L78.6528,76.5202" style="stroke:rgb(0,0,0);stroke-width:0.3;fill:none" />
  <path d="M78.6528,76.5202 L78.7214,76.4071" style="stroke:rgb(0,0,0);stroke-width:0.3;fill:none" />
  <path d="M78.7214,76.4071 L78.7805,76.3049" style="stroke:rgb(0,0,0);stroke-width:0.3;fill:none" />
  <path d="M78.7805,76.3049 L78.8289,76.2178" style="stroke:rgb(0,0,0);stroke-width:0.3;fill:none" />
  <path d="M78.8289,76.2178 L78.8652,76.1502" style="stroke:rgb(0,0,0);stroke-width:0.3;fill:none" />
  <path d="M78.8652,76.1502 L78.888,76.1065" style="stroke:rgb(0,0,0);stroke-width:0.3;fill:none" />
  <path d="M78.888,76.1065 L78.8959,76.091" style="stroke:rgb(0,0,0);stroke-width:0.3;fill:none" />
  <path d="M73.4034,56.9212 L73.4034,66.463" style="stroke:rgb(0,0,0);stroke-width:0.3;fill:none" />
  <path d="M11.9627,77.8739 L11.9627,87.6617" style="stroke:rgb(0,0,0);stroke-width:0.3;fill:none" />
  <path d="M11.9627,87.6617 L73.0831,87.6617" style="stroke:rgb(0,0,0);stroke-width:0.3;fill:none" />
  <path d="M73.0831,87.6617 L73.0831,77.8739" style="stroke:rgb(0,0,0);stroke-width:0.3;fill:none" />
  <path d="M114.071,26.1806 L103.824,26.1806" style="stroke:rgb(0,0,0);stroke-width:0.3;fill:none" />
  <path d="M103.824,26.1806 L103.824,93.7458" style="stroke:rgb(0,0,0);stroke-width:0.3;fill:none" />
  <path d="M103.824,93.7458 L132.003,93.7458" style="stroke:rgb(0,0,0);stroke-width:0.3;fill:none" />
  <path d="M155.058,26.1806 L165.305,26.1806" style="stroke:rgb(0,0,0);stroke-width:0.3;fill:none" />
  <path d="M165.305,26.1806 L165.305,93.7458" style="stroke:rgb(0,0,0);stroke-width:0.3;fill:none" />
  <path d="M165.305,93.7458 L136.614,93.7458" style="stroke:rgb(0,0,0);stroke-width:0.3;fill:none" />
  <path d="M141.45,111.844 L129.646,111.844" style="stroke:rgb(0,0,0);stroke-width:0.3;fill:none" />
  <path d="M129.646,111.844 L129.646,100.433" style="stroke:rgb(0,0,0);stroke-width:0.3;fill:none" />
  <path d="M129.646,100.433 L141.45,100.433" style="stroke:rgb(0,0,0);stroke-width:0.3;fill:none" />
  <path d="M141.45,100.433 L141.45,111.844" style="stroke:rgb(0,0,0);stroke-width:0.3;fill:none" />
  <path d="M141.45,100.433 L129.646,111.844" style="stroke:rgb(0,0,0);stroke-width:0.3;fill:none" />
  <path d="M131.089,102.163 L135.187,102.163" style="stroke:rgb(0,0,0);stroke-width:0.3;fill:none" />
  <path d="M131.089,103.188 L135.187,103.188" style="stroke:rgb(0,0,0);stroke-width:0.3;fill:none" />
  <path d="M136.212,108.311 L136.635,107.911" style="stroke:rgb(0,0,0);stroke-width:0.3;fill:none" />
  <path d="M136.635,107.911 L137.013,107.601" style="stroke:rgb(0,0,0);stroke-width:0.3;fill:none" />
  <path d="M137.013,107.601 L137.347,107.372" style="stroke:rgb(0,0,0);stroke-width:0.3;fill:none" />
  <path d="M137.347,107.372 L137.642,107.215" style="stroke:rgb(0,0,0);stroke-width:0.3;fill:none" />
  <path d="M137.642,107.215 L137.9,107.123" style="stroke:rgb(0,0,0);stroke-width:0.3;fill:none" />
  <path d="M137.9,107.123 L138.123,107.086" style="stroke:rgb(0,0,0);stroke-width:0.3;fill:none" />
  <path d="M138.123,107.086 L138.316,107.098" style="stroke:rgb(0,0,0);stroke-width:0.3;fill:none" />
  <path d="M138.316,107.098 L138.48,107.15" style="stroke:rgb(0,0,0);stroke-width:0.3;fill:none" />
  <path d="M138.48,107.15 L138.62,107.232" style="stroke:rgb(0,0,0);stroke-width:0.3;fill:none" />
  <path d="M138.62,107.232 L138.737,107.338" style="stroke:rgb(0,0,0);stroke-width:0.3;fill:none" />
  <path d="M138.737,107.338 L138.835,107.459" style="stroke:rgb(0,0,0);stroke-width:0.3;fill:none" />
  <path d="M138.835,107.459 L138.917,107.586" style="stroke:rgb(0,0,0);stroke-width:0.3;fill:none" />
  <path d="M138.917,107.586 L138.985,107.711" style="stroke:rgb(0,0,0);stroke-width:0.3;fill:none" />
  <path d="M138.985,107.711 L139.044,107.826" style="stroke:rgb(0,0,0);stroke-width:0.3;fill:none" />
  <path d="M139.044,107.826 L139.094,107.927" style="stroke:rgb(0,0,0);stroke-width:0.3;fill:none" />
  <path d="M139.094,107.927 L139.137,108.013" style="stroke:rgb(0,0,0);stroke-width:0.3;fill:none" />
  <path d="M139.137,108.013 L139.174,108.088" style="stroke:rgb(0,0,0);stroke-width:0.3;fill:none" />
  <path d="M139.174,108.088 L139.207,108.152" style="stroke:rgb(0,0,0);stroke-width:0.3;fill:none" />
  <path d="M139.207,108.152 L139.235,108.209" style="stroke:rgb(0,0,0);stroke-width:0.3;fill:none" />
  <path d="M139.235,108.209 L139.26,108.26" style="stroke:rgb(0,0,0);stroke-width:0.3;fill:none" />
  <path d="M139.26,108.26 L139.284,108.307" style="stroke:rgb(0,0,0);stroke-width:0.3;fill:none" />
  <path d="M139.284,108.307 L139.307,108.352" style="stroke:rgb(0,0,0);stroke-width:0.3;fill:none" />
  <path d="M139.307,108.352 L139.329,108.397" style="stroke:rgb(0,0,0);stroke-width:0.3;fill:none" />
  <path d="M139.329,108.397 L139.353,108.444" style="stroke:rgb(0,0,0);stroke-width:0.3;fill:none" />
  <path d="M139.353,108.444 L139.378,108.495" style="stroke:rgb(0,0,0);stroke-width:0.3;fill:none" />
  <path d="M139.378,108.495 L139.406,108.552" style="stroke:rgb(0,0,0);stroke-width:0.3;fill:none" />
  <path d="M139.406,108.552 L139.439,108.617" style="stroke:rgb(0,0,0);stroke-width:0.3;fill:none" />
  <path d="M139.439,108.617 L139.476,108.691" style="stroke:rgb(0,0,0);stroke-width:0.3;fill:none" />
  <path d="M139.476,108.691 L139.519,108.775" style="stroke:rgb(0,0,0);stroke-width:0.3;fill:none" />
  <path d="M139.519,108.775 L139.566,108.866" style="stroke:rgb(0,0,0);stroke-width:0.3;fill:none" />
  <path d="M139.566,108.866 L139.619,108.96" style="stroke:rgb(0,0,0);stroke-width:0.3;fill:none" />
  <path d="M139.619,108.96 L139.676,109.056" style="stroke:rgb(0,0,0);stroke-width:0.3;fill:none" />
  <path d="M139.676,109.056 L139.738,109.15" style="stroke:rgb(0,0,0);stroke-width:0.3;fill:none" />
  <path d="M139.738,109.15 L139.804,109.24" style="stroke:rgb(0,0,0);stroke-width:0.3;fill:none" />
  <path d="M139.804,109.24 L139.875,109.323" style="stroke:rgb(0,0,0);stroke-width:0.3;fill:none" />
  <path d="M139.875,109.323 L139.949,109.395" style="stroke:rgb(0,0,0);stroke-width:0.3;fill:none" />
  <path d="M139.949,109.395 L140.027,109.456" style="stroke:rgb(0,0,0);stroke-width:0.3;fill:none" />
  <path d="M140.027,109.456 L140.109,109.5" style="stroke:rgb(0,0,0);stroke-width:0.3;fill:none" />
  <path d="M140.109,109.5 L140.194,109.527" style="stroke:rgb(0,0,0);stroke-width:0.3;fill:none" />
  <path d="M140.194,109.527 L140.282,109.533" style="stroke:rgb(0,0,0);stroke-width:0.3;fill:none" />
  <path d="M140.282,109.533 L140.373,109.515" style="stroke:rgb(0,0,0);stroke-width:0.3;fill:none" />
  <path d="M140.373,109.515 L140.467,109.471" style="stroke:rgb(0,0,0);stroke-width:0.3;fill:none" />
  <path d="M140.467,109.471 L140.562,109.404" style="stroke:rgb(0,0,0);stroke-width:0.3;fill:none" />
  <path d="M140.562,109.404 L140.658,109.317" style="stroke:rgb(0,0,0);stroke-width:0.3;fill:none" />
  <path d="M140.658,109.317 L140.752,109.215" style="stroke:rgb(0,0,0);stroke-width:0.3;fill:none" />
  <path d="M140.752,109.215 L140.845,109.101" style="stroke:rgb(0,0,0);stroke-width:0.3;fill:none" />
  <path d="M140.845,109.101 L140.933,108.982" style="stroke:rgb(0,0,0);stroke-width:0.3;fill:none" />
  <path d="M140.933,108.982 L141.016,108.86" style="stroke:rgb(0,0,0);stroke-width:0.3;fill:none" />
  <path d="M141.016,108.86 L141.092,108.74" style="stroke:rgb(0,0,0);stroke-width:0.3;fill:none" />
  <path d="M141.092,108.74 L141.161,108.627" style="stroke:rgb(0,0,0);stroke-width:0.3;fill:none" />
  <path d="M141.161,108.627 L141.22,108.525" style="stroke:rgb(0,0,0);stroke-width:0.3;fill:none" />
  <path d="M141.22,108.525 L141.268,108.438" style="stroke:rgb(0,0,0);stroke-width:0.3;fill:none" />
  <path d="M141.268,108.438 L141.305,108.37" style="stroke:rgb(0,0,0);stroke-width:0.3;fill:none" />
  <path d="M141.305,108.37 L141.327,108.327" style="stroke:rgb(0,0,0);stroke-width:0.3;fill:none" />
  <path d="M141.327,108.327 L141.335,108.311" style="stroke:rgb(0,0,0);stroke-width:0.3;fill:none" />
  <path d="M135.556,110.061 L135.98,109.662" style="stroke:rgb(0,0,0);stroke-width:0.3;fill:none" />
  <path d="M135.98,109.662 L136.357,109.351" style="stroke:rgb(0,0,0);stroke-width:0.3;fill:none" />
  <path d="M136.357,109.351 L136.692,109.122" style="stroke:rgb(0,0,0);stroke-width:0.3;fill:none" />
  <path d="M136.692,109.122 L136.986,108.965" style="stroke:rgb(0,0,0);stroke-width:0.3;fill:none" />
  <path d="M136.986,108.965 L137.244,108.873" style="stroke:rgb(0,0,0);stroke-width:0.3;fill:none" />
  <path d="M137.244,108.873 L137.468,108.837" style="stroke:rgb(0,0,0);stroke-width:0.3;fill:none" />
  <path d="M137.468,108.837 L137.66,108.848" style="stroke:rgb(0,0,0);stroke-width:0.3;fill:none" />
  <path d="M137.66,108.848 L137.825,108.9" style="stroke:rgb(0,0,0);stroke-width:0.3;fill:none" />
  <path d="M137.825,108.9 L137.964,108.982" style="stroke:rgb(0,0,0);stroke-width:0.3;fill:none" />
  <path d="M137.964,108.982 L138.082,109.088" style="stroke:rgb(0,0,0);stroke-width:0.3;fill:none" />
  <path d="M138.082,109.088 L138.18,109.209" style="stroke:rgb(0,0,0);stroke-width:0.3;fill:none" />
  <path d="M138.18,109.209 L138.261,109.336" style="stroke:rgb(0,0,0);stroke-width:0.3;fill:none" />
  <path d="M138.261,109.336 L138.33,109.461" style="stroke:rgb(0,0,0);stroke-width:0.3;fill:none" />
  <path d="M138.33,109.461 L138.388,109.576" style="stroke:rgb(0,0,0);stroke-width:0.3;fill:none" />
  <path d="M138.388,109.576 L138.438,109.677" style="stroke:rgb(0,0,0);stroke-width:0.3;fill:none" />
  <path d="M138.438,109.677 L138.481,109.763" style="stroke:rgb(0,0,0);stroke-width:0.3;fill:none" />
  <path d="M138.481,109.763 L138.519,109.838" style="stroke:rgb(0,0,0);stroke-width:0.3;fill:none" />
  <path d="M138.519,109.838 L138.551,109.902" style="stroke:rgb(0,0,0);stroke-width:0.3;fill:none" />
  <path d="M138.551,109.902 L138.579,109.959" style="stroke:rgb(0,0,0);stroke-width:0.3;fill:none" />
  <path d="M138.579,109.959 L138.605,110.01" style="stroke:rgb(0,0,0);stroke-width:0.3;fill:none" />
  <path d="M138.605,110.01 L138.628,110.057" style="stroke:rgb(0,0,0);stroke-width:0.3;fill:none" />
  <path d="M138.628,110.057 L138.651,110.102" style="stroke:rgb(0,0,0);stroke-width:0.3;fill:none" />
  <path d="M138.651,110.102 L138.673,110.147" style="stroke:rgb(0,0,0);stroke-width:0.3;fill:none" />
  <path d="M138.673,110.147 L138.697,110.194" style="stroke:rgb(0,0,0);stroke-width:0.3;fill:none" />
  <path d="M138.697,110.194 L138.722,110.245" style="stroke:rgb(0,0,0);stroke-width:0.3;fill:none" />
  <path d="M138.722,110.245 L138.751,110.302" style="stroke:rgb(0,0,0);stroke-width:0.3;fill:none" />
  <path d="M138.751,110.302 L138.783,110.367" style="stroke:rgb(0,0,0);stroke-width:0.3;fill:none" />
  <path d="M138.783,110.367 L138.82,110.441" style="stroke:rgb(0,0,0);stroke-width:0.3;fill:none" />
  <path d="M138.82,110.441 L138.863,110.525" style="stroke:rgb(0,0,0);stroke-width:0.3;fill:none" />
  <path d="M138.863,110.525 L138.911,110.616" style="stroke:rgb(0,0,0);stroke-width:0.3;fill:none" />
  <path d="M138.911,110.616 L138.963,110.71" style="stroke:rgb(0,0,0);stroke-width:0.3;fill:none" />
  <path d="M138.963,110.71 L139.021,110.806" style="stroke:rgb(0,0,0);stroke-width:0.3;fill:none" />
  <path d="M139.021,110.806 L139.083,110.9" style="stroke:rgb(0,0,0);stroke-width:0.3;fill:none" />
  <path d="M139.083,110.9 L139.149,110.99" style="stroke:rgb(0,0,0);stroke-width:0.3;fill:none" />
  <path d="M139.149,110.99 L139.219,111.073" style="stroke:rgb(0,0,0);stroke-width:0.3;fill:none" />
  <path d="M139.219,111.073 L139.294,111.146" style="stroke:rgb(0,0,0);stroke-width:0.3;fill:none" />
  <path d="M139.294,111.146 L139.372,111.206" style="stroke:rgb(0,0,0);stroke-width:0.3;fill:none" />
  <path d="M139.372,111.206 L139.453,111.251" style="stroke:rgb(0,0,0);stroke-width:0.3;fill:none" />
  <path d="M139.453,111.251 L139.538,111.277" style="stroke:rgb(0,0,0);stroke-width:0.3;fill:none" />
  <path d="M139.538,111.277 L139.626,111.283" style="stroke:rgb(0,0,0);stroke-width:0.3;fill:none" />
  <path d="M139.626,111.283 L139.717,111.265" style="stroke:rgb(0,0,0);stroke-width:0.3;fill:none" />
  <path d="M139.717,111.265 L139.811,111.222" style="stroke:rgb(0,0,0);stroke-width:0.3;fill:none" />
  <path d="M139.811,111.222 L139.906,111.154" style="stroke:rgb(0,0,0);stroke-width:0.3;fill:none" />
  <path d="M139.906,111.154 L140.002,111.067" style="stroke:rgb(0,0,0);stroke-width:0.3;fill:none" />
  <path d="M140.002,111.067 L140.097,110.965" style="stroke:rgb(0,0,0);stroke-width:0.3;fill:none" />
  <path d="M140.097,110.965 L140.189,110.852" style="stroke:rgb(0,0,0);stroke-width:0.3;fill:none" />
  <path d="M140.189,110.852 L140.277,110.732" style="stroke:rgb(0,0,0);stroke-width:0.3;fill:none" />
  <path d="M140.277,110.732 L140.36,110.61" style="stroke:rgb(0,0,0);stroke-width:0.3;fill:none" />
  <path d="M140.36,110.61 L140.437,110.491" style="stroke:rgb(0,0,0);stroke-width:0.3;fill:none" />
  <path d="M140.437,110.491 L140.505,110.378" style="stroke:rgb(0,0,0);stroke-width:0.3;fill:none" />
  <path d="M140.505,110.378 L140.564,110.275" style="stroke:rgb(0,0,0);stroke-width:0.3;fill:none" />
  <path d="M140.564,110.275 L140.613,110.188" style="stroke:rgb(0,0,0);stroke-width:0.3;fill:none" />
  <path d="M140.613,110.188 L140.649,110.121" style="stroke:rgb(0,0,0);stroke-width:0.3;fill:none" />
  <path d="M140.649,110.121 L140.672,110.077" style="stroke:rgb(0,0,0);stroke-width:0.3;fill:none" />
  <path d="M140.672,110.077 L140.68,110.061" style="stroke:rgb(0,0,0);stroke-width:0.3;fill:none" />
  <path d="M132.003,93.7458 L132.003,100.433" style="stroke:rgb(0,0,0);stroke-width:0.3;fill:none" />
  <path d="M136.614,93.7458 L136.614,100.433" style="stroke:rgb(0,0,0);stroke-width:0.3;fill:none" />
  <path d="M114.071,77.4149 L103.824,77.4149" style="stroke:rgb(0,0,0);stroke-width:0.3;fill:none" />
  <path d="M155.058,77.4149 L165.305,77.4149" style="stroke:rgb(0,0,0);stroke-width:0.3;fill:none" />
  <path d="M43.617,2.19 L42.1938,2.19" style="stroke:rgb(0,0,0);stroke-width:0.3;fill:none" />
  <path d="M42.1938,2.19 A1.42317,1.42317 0 0,0 40.7706,3.61317 " style="stroke:rgb(0,0,0);stroke-width:0.3;fill:none" />
  <path d="M40.7706,3.61317 L40.7706,7.17111" style="stroke:rgb(0,0,0);stroke-width:0.3;fill:none" />
  <path d="M40.7706,7.17111 A1.42317,1.42317 0 0,0 42.1938,8.59428 " style="stroke:rgb(0,0,0);stroke-width:0.3;fill:none" />
  <path d="M42.1938,8.59428 L43.617,8.59428" style="stroke:rgb(0,0,0);stroke-width:0.3;fill:none" />
  <path d="M180.249,51.5841 A4.71427,4.71427 0 0,0 180.76,49.4493 " style="stroke:rgb(0,0,0);stroke-width:0.3;fill:none" />
  <path d="M180.76,49.4493 A1.42317,1.42317 0 0,0 178.069,48.8028 " style="stroke:rgb(0,0,0);stroke-width:0.3;fill:none" />
  <path d="M178.069,48.8028 L177.046,50.8074" style="stroke:rgb(0,0,0);stroke-width:0.3;fill:none" />
  <path d="M174.355,50.1609 A1.42317,1.42317 0 0,0 177.046,50.8074 " style="stroke:rgb(0,0,0);stroke-width:0.3;fill:none" />
  <path d="M174.866,48.0262 A4.71427,4.71427 0 0,0 174.355,50.1609 " style="stroke:rgb(0,0,0);stroke-width:0.3;fill:none" />
  <path d="M27.2428,31.304 L27.2728,31.304" style="stroke:rgb(0,0,0);stroke-width:0.3;fill:none" />
  <path d="M29.1341,31.304 L29.1641,31.304" style="stroke:rgb(0,0,0);stroke-width:0.3;fill:none" />
  <path d="M31.0253,31.304 L31.0554,31.304" style="stroke:rgb(0,0,0);stroke-width:0.3;fill:none" />
  <path d="M32.9166,31.304 L32.9466,31.304" style="stroke:rgb(0,0,0);stroke-width:0.3;fill:none" />
  <path d="M34.8079,31.304 L34.8379,31.304" style="stroke:rgb(0,0,0);stroke-width:0.3;fill:none" />
  <path d="M36.6991,31.304 L36.7292,31.304" style="stroke:rgb(0,0,0);stroke-width:0.3;fill:none" />
  <path d="M38.5904,31.304 L38.6204,31.304" style="stroke:rgb(0,0,0);stroke-width:0.3;fill:none" />
  <path d="M40.4817,31.304 L40.5117,31.304" style="stroke:rgb(0,0,0);stroke-width:0.3;fill:none" />
  <path d="M42.3729,31.304 L42.4029,31.304" style="stroke:rgb(0,0,0);stroke-width:0.3;fill:none" />
  <path d="M44.2642,31.304 L44.2942,31.304" style="stroke:rgb(0,0,0);stroke-width:0.3;fill:none" />
  <path d="M46.1555,31.304 L46.1855,31.304" style="stroke:rgb(0,0,0);stroke-width:0.3;fill:none" />
  <path d="M48.0467,31.304 L48.0767,31.304" style="stroke:rgb(0,0,0);stroke-width:0.3;fill:none" />
  <path d="M49.938,31.304 L49.968,31.304" style="stroke:rgb(0,0,0);stroke-width:0.3;fill:none" />
  <path d="M51.8293,31.304 L51.8593,31.304" style="stroke:rgb(0,0,0);stroke-width:0.3;fill:none" />
  <path d="M6.74909,13.372 L11.8725,10.8103" style="stroke:rgb(0,0,0);stroke-width:0.3;fill:none" />
  <path d="M11.8725,10.8103 L40.0514,10.8103" style="stroke:rgb(0,0,0);stroke-width:0.3;fill:none" />
  <path d="M40.0514,10.8103 L42.7416,9.72539" style="stroke:rgb(0,0,0);stroke-width:0.3;fill:none" />
  <path d="M42.7416,9.72539 L45.1748,10.8103" style="stroke:rgb(0,0,0);stroke-width:0.3;fill:none" />
  <path d="M45.1748,10.8103 L73.3537,10.8103" style="stroke:rgb(0,0,0);stroke-width:0.3;fill:none" />
  <path d="M73.3537,10.8103 L75.9154,13.372" style="stroke:rgb(0,0,0);stroke-width:0.3;fill:none" />
  <path d="M114.341,13.372 L119.465,10.8103" style="stroke:rgb(0,0,0);stroke-width:0.3;fill:none" />
  <path d="M119.465,10.8103 L129.711,10.8103" style="stroke:rgb(0,0,0);stroke-width:0.3;fill:none" />
  <path d="M129.711,10.8103 L132.257,9.83879" style="stroke:rgb(0,0,0);stroke-width:0.3;fill:none" />
  <path d="M132.257,9.83879 L134.835,10.8103" style="stroke:rgb(0,0,0);stroke-width:0.3;fill:none" />
  <path d="M134.835,10.8103 L152.767,10.8103" style="stroke:rgb(0,0,0);stroke-width:0.3;fill:none" />
  <path d="M152.767,10.8103 L155.329,13.372" style="stroke:rgb(0,0,0);stroke-width:0.3;fill:none" />
  <path d="M132.273,8.24861 L132.273,1.84432" style="stroke:rgb(0,0,0);stroke-width:0.3;fill:none" />
  <path d="M132.273,1.84432 L134.408,1.84432" style="stroke:rgb(0,0,0);stroke-width:0.3;fill:none" />
  <path d="M135.831,3.2675 A1.42317,1.42317 0 0,0 134.408,1.84432 " style="stroke:rgb(0,0,0);stroke-width:0.3;fill:none" />
  <path d="M135.831,3.2675 L135.831,3.97909" style="stroke:rgb(0,0,0);stroke-width:0.3;fill:none" />
  <path d="M134.408,5.40226 A1.42317,1.42317 0 0,0 135.831,3.97909 " style="stroke:rgb(0,0,0);stroke-width:0.3;fill:none" />
  <path d="M134.408,5.40226 L132.273,5.40226" style="stroke:rgb(0,0,0);stroke-width:0.3;fill:none" />
  <path d="M134.835,41.5509 L134.835,41.5809" style="stroke:rgb(0,0,0);stroke-width:0.3;fill:none" />
  <path d="M134.835,43.4422 L134.835,43.4722" style="stroke:rgb(0,0,0);stroke-width:0.3;fill:none" />
  <path d="M134.835,45.3334 L134.835,45.3634" style="stroke:rgb(0,0,0);stroke-width:0.3;fill:none" />
  <path d="M134.835,47.2247 L134.835,47.2547" style="stroke:rgb(0,0,0);stroke-width:0.3;fill:none" />
  <path d="M134.835,49.116 L134.835,49.146" style="stroke:rgb(0,0,0);stroke-width:0.3;fill:none" />
  <path d="M134.835,51.0072 L134.835,51.0372" style="stroke:rgb(0,0,0);stroke-width:0.3;fill:none" />
  <path d="M134.835,52.8985 L134.835,52.9285" style="stroke:rgb(0,0,0);stroke-width:0.3;fill:none" />
  <path d="M134.835,54.7898 L134.835,54.8198" style="stroke:rgb(0,0,0);stroke-width:0.3;fill:none" />
  <path d="M134.835,56.681 L134.835,56.711" style="stroke:rgb(0,0,0);stroke-width:0.3;fill:none" />
  <path d="M134.835,58.5723 L134.835,58.6023" style="stroke:rgb(0,0,0);stroke-width:0.3;fill:none" />
</svg>
