<?xml version="1.0" standalone="yes"?>

<svg width="56mm" height="63mm" viewBox="0 0 56 63" version="1.1"
xmlns="http://www.w3.org/2000/svg" style="stroke-linecap:round">
  <path d="M1.1677,29.9545 L34.2567,44.352" style="stroke:rgb(0,0,0);stroke-width:0.25;fill:none" />
  <path d="M50.1698,14.5466 L34.2567,44.352" style="stroke:rgb(0,0,0);stroke-width:0.25;fill:none" />
  <path d="M17.207,0.275362 L50.1389,14.6045" style="stroke:rgb(0,0,0);stroke-width:0.25;fill:none" />
  <path d="M17.207,0.275362 L1.1677,29.9545" style="stroke:rgb(0,0,0);stroke-width:0.25;fill:none" />
  <path d="M42.1455,29.5761 L52.5062,34.1222" style="stroke:rgb(0,0,0);stroke-width:0.25;fill:none" />
  <path d="M52.8775,28.8633 A1.08557,1.08557 0 0,0 52.7084,28.8645 " style="stroke:rgb(0,0,0);stroke-width:0.25;fill:none" />
  <path d="M52.7084,28.8645 A1.10379,1.10379 0 0,0 52.6349,28.8732 " style="stroke:rgb(0,0,0);stroke-width:0.25;fill:none" />
  <path d="M52.6349,28.8732 A1.1434,1.1434 0 0,0 52.576,28.8837 " style="stroke:rgb(0,0,0);stroke-width:0.25;fill:none" />
  <path d="M52.576,28.8837 A1.17967,1.17967 0 0,0 52.5242,28.8955 " style="stroke:rgb(0,0,0);stroke-width:0.25;fill:none" />
  <path d="M52.5242,28.8955 A1.21781,1.21781 0 0,0 52.4765,28.9085 " style="stroke:rgb(0,0,0);stroke-width:0.25;fill:none" />
  <path d="M52.4765,28.9085 A1.2583,1.2583 0 0,0 52.4314,28.9227 " style="stroke:rgb(0,0,0);stroke-width:0.25;fill:none" />
  <path d="M52.4314,28.9227 A1.30149,1.30149 0 0,0 52.3881,28.9381 " style="stroke:rgb(0,0,0);stroke-width:0.25;fill:none" />
  <path d="M52.3881,28.9381 A1.34768,1.34768 0 0,0 52.3457,28.9547 " style="stroke:rgb(0,0,0);stroke-width:0.25;fill:none" />
  <path d="M52.3457,28.9547 A1.39724,1.39724 0 0,0 52.304,28.9727 " style="stroke:rgb(0,0,0);stroke-width:0.25;fill:none" />
  <path d="M52.304,28.9727 A1.45055,1.45055 0 0,0 52.2625,28.9922 " style="stroke:rgb(0,0,0);stroke-width:0.25;fill:none" />
  <path d="M52.2625,28.9922 A1.50808,1.50808 0 0,0 52.2208,29.0133 " style="stroke:rgb(0,0,0);stroke-width:0.25;fill:none" />
  <path d="M52.2208,29.0133 A1.57035,1.57035 0 0,0 52.1788,29.0362 " style="stroke:rgb(0,0,0);stroke-width:0.25;fill:none" />
  <path d="M52.1788,29.0362 A1.63797,1.63797 0 0,0 52.1361,29.0611 " style="stroke:rgb(0,0,0);stroke-width:0.25;fill:none" />
  <path d="M52.1361,29.0611 A1.71167,1.71167 0 0,0 52.0926,29.0884 " style="stroke:rgb(0,0,0);stroke-width:0.25;fill:none" />
  <path d="M52.0926,29.0884 A1.79231,1.79231 0 0,0 52.0478,29.1182 " style="stroke:rgb(0,0,0);stroke-width:0.25;fill:none" />
  <path d="M52.0478,29.1182 A1.88093,1.88093 0 0,0 52.0016,29.151 " style="stroke:rgb(0,0,0);stroke-width:0.25;fill:none" />
  <path d="M52.0016,29.151 A1.97878,1.97878 0 0,0 51.9536,29.1872 " style="stroke:rgb(0,0,0);stroke-width:0.25;fill:none" />
  <path d="M51.9536,29.1872 A2.08737,2.08737 0 0,0 51.9035,29.2274 " style="stroke:rgb(0,0,0);stroke-width:0.25;fill:none" />
  <path d="M51.9035,29.2274 A2.20859,2.20859 0 0,0 51.8508,29.2724 " style="stroke:rgb(0,0,0);stroke-width:0.25;fill:none" />
  <path d="M51.8508,29.2724 A2.34478,2.34478 0 0,0 51.7951,29.323 " style="stroke:rgb(0,0,0);stroke-width:0.25;fill:none" />
  <path d="M51.7951,29.323 A2.49891,2.49891 0 0,0 51.7358,29.3804 " style="stroke:rgb(0,0,0);stroke-width:0.25;fill:none" />
  <path d="M51.7358,29.3804 A2.67478,2.67478 0 0,0 51.6722,29.446 " style="stroke:rgb(0,0,0);stroke-width:0.25;fill:none" />
  <path d="M51.6722,29.446 A2.87736,2.87736 0 0,0 51.6034,29.5221 " style="stroke:rgb(0,0,0);stroke-width:0.25;fill:none" />
  <path d="M51.6034,29.5221 A3.11327,3.11327 0 0,0 51.5282,29.6113 " style="stroke:rgb(0,0,0);stroke-width:0.25;fill:none" />
  <path d="M51.5282,29.6113 A3.39152,3.39152 0 0,0 51.4451,29.7176 " style="stroke:rgb(0,0,0);stroke-width:0.25;fill:none" />
  <path d="M51.4451,29.7176 A3.72473,3.72473 0 0,0 51.3521,29.8469 " style="stroke:rgb(0,0,0);stroke-width:0.25;fill:none" />
  <path d="M51.3521,29.8469 A4.13115,4.13115 0 0,0 51.2462,30.0082 " style="stroke:rgb(0,0,0);stroke-width:0.25;fill:none" />
  <path d="M50.2154,36.3525 A7.39852,7.39852 0 0,0 50.3587,37.0641 " style="stroke:rgb(0,0,0);stroke-width:0.25;fill:none" />
  <path d="M50.3587,37.0641 A6.16084,6.16084 0 0,0 50.4819,37.4956 " style="stroke:rgb(0,0,0);stroke-width:0.25;fill:none" />
  <path d="M50.4819,37.4956 A5.28985,5.28985 0 0,0 50.588,37.795 " style="stroke:rgb(0,0,0);stroke-width:0.25;fill:none" />
  <path d="M50.588,37.795 A4.63829,4.63829 0 0,0 50.6806,38.0183 " style="stroke:rgb(0,0,0);stroke-width:0.25;fill:none" />
  <path d="M50.6806,38.0183 A4.13115,4.13115 0 0,0 50.7628,38.1928 " style="stroke:rgb(0,0,0);stroke-width:0.25;fill:none" />
  <path d="M50.7628,38.1928 A3.72473,3.72473 0 0,0 50.8368,38.3339 " style="stroke:rgb(0,0,0);stroke-width:0.25;fill:none" />
  <path d="M50.8368,38.3339 A3.39152,3.39152 0 0,0 50.9041,38.4509 " style="stroke:rgb(0,0,0);stroke-width:0.25;fill:none" />
  <path d="M50.9041,38.4509 A3.11327,3.11327 0 0,0 50.966,38.5497 " style="stroke:rgb(0,0,0);stroke-width:0.25;fill:none" />
  <path d="M50.966,38.5497 A2.87736,2.87736 0 0,0 51.0235,38.6347 " style="stroke:rgb(0,0,0);stroke-width:0.25;fill:none" />
  <path d="M51.0235,38.6347 A2.67478,2.67478 0 0,0 51.0772,38.7087 " style="stroke:rgb(0,0,0);stroke-width:0.25;fill:none" />
  <path d="M51.0772,38.7087 A2.49891,2.49891 0 0,0 51.1278,38.7738 " style="stroke:rgb(0,0,0);stroke-width:0.25;fill:none" />
  <path d="M51.1278,38.7738 A2.34478,2.34478 0 0,0 51.1759,38.8317 " style="stroke:rgb(0,0,0);stroke-width:0.25;fill:none" />
  <path d="M51.1759,38.8317 A2.20859,2.20859 0 0,0 51.2217,38.8836 " style="stroke:rgb(0,0,0);stroke-width:0.25;fill:none" />
  <path d="M51.2217,38.8836 A2.08737,2.08737 0 0,0 51.2657,38.9305 " style="stroke:rgb(0,0,0);stroke-width:0.25;fill:none" />
  <path d="M51.2657,38.9305 A1.97878,1.97878 0 0,0 51.3081,38.9731 " style="stroke:rgb(0,0,0);stroke-width:0.25;fill:none" />
  <path d="M51.3081,38.9731 A1.88093,1.88093 0 0,0 51.3492,39.0121 " style="stroke:rgb(0,0,0);stroke-width:0.25;fill:none" />
  <path d="M51.3492,39.0121 A1.79231,1.79231 0 0,0 51.3894,39.0479 " style="stroke:rgb(0,0,0);stroke-width:0.25;fill:none" />
  <path d="M51.3894,39.0479 A1.71167,1.71167 0 0,0 51.4287,39.081 " style="stroke:rgb(0,0,0);stroke-width:0.25;fill:none" />
  <path d="M51.4287,39.081 A1.63797,1.63797 0 0,0 51.4674,39.1117 " style="stroke:rgb(0,0,0);stroke-width:0.25;fill:none" />
  <path d="M51.4674,39.1117 A1.57035,1.57035 0 0,0 51.5058,39.1402 " style="stroke:rgb(0,0,0);stroke-width:0.25;fill:none" />
  <path d="M51.5058,39.1402 A1.50808,1.50808 0 0,0 51.5441,39.167 " style="stroke:rgb(0,0,0);stroke-width:0.25;fill:none" />
  <path d="M51.5441,39.167 A1.45055,1.45055 0 0,0 51.5824,39.1921 " style="stroke:rgb(0,0,0);stroke-width:0.25;fill:none" />
  <path d="M51.5824,39.1921 A1.39724,1.39724 0 0,0 51.6212,39.2158 " style="stroke:rgb(0,0,0);stroke-width:0.25;fill:none" />
  <path d="M51.6212,39.2158 A1.34768,1.34768 0 0,0 51.6608,39.2382 " style="stroke:rgb(0,0,0);stroke-width:0.25;fill:none" />
  <path d="M51.6608,39.2382 A1.30149,1.30149 0 0,0 51.7016,39.2595 " style="stroke:rgb(0,0,0);stroke-width:0.25;fill:none" />
  <path d="M51.7016,39.2595 A1.2583,1.2583 0 0,0 51.7442,39.2799 " style="stroke:rgb(0,0,0);stroke-width:0.25;fill:none" />
  <path d="M51.7442,39.2799 A1.21781,1.21781 0 0,0 51.7896,39.2994 " style="stroke:rgb(0,0,0);stroke-width:0.25;fill:none" />
  <path d="M51.7896,39.2994 A1.17967,1.17967 0 0,0 51.8392,39.3184 " style="stroke:rgb(0,0,0);stroke-width:0.25;fill:none" />
  <path d="M51.8392,39.3184 A1.1434,1.1434 0 0,0 51.8961,39.3371 " style="stroke:rgb(0,0,0);stroke-width:0.25;fill:none" />
  <path d="M51.8961,39.3371 A1.10379,1.10379 0 0,0 51.9677,39.356 " style="stroke:rgb(0,0,0);stroke-width:0.25;fill:none" />
  <path d="M51.9677,39.356 A1.08557,1.08557 0 0,0 52.1349,39.381 " style="stroke:rgb(0,0,0);stroke-width:0.25;fill:none" />
  <path d="M52.1349,39.381 A1.08557,1.08557 0 0,0 52.304,39.3798 " style="stroke:rgb(0,0,0);stroke-width:0.25;fill:none" />
  <path d="M52.304,39.3798 A1.10379,1.10379 0 0,0 52.3776,39.3711 " style="stroke:rgb(0,0,0);stroke-width:0.25;fill:none" />
  <path d="M52.3776,39.3711 A1.1434,1.1434 0 0,0 52.4365,39.3606 " style="stroke:rgb(0,0,0);stroke-width:0.25;fill:none" />
  <path d="M52.4365,39.3606 A1.17967,1.17967 0 0,0 52.4883,39.3488 " style="stroke:rgb(0,0,0);stroke-width:0.25;fill:none" />
  <path d="M52.4883,39.3488 A1.21781,1.21781 0 0,0 52.5359,39.3358 " style="stroke:rgb(0,0,0);stroke-width:0.25;fill:none" />
  <path d="M52.5359,39.3358 A1.2583,1.2583 0 0,0 52.581,39.3216 " style="stroke:rgb(0,0,0);stroke-width:0.25;fill:none" />
  <path d="M52.581,39.3216 A1.30149,1.30149 0 0,0 52.6244,39.3062 " style="stroke:rgb(0,0,0);stroke-width:0.25;fill:none" />
  <path d="M52.6244,39.3062 A1.34768,1.34768 0 0,0 52.6667,39.2896 " style="stroke:rgb(0,0,0);stroke-width:0.25;fill:none" />
  <path d="M52.6667,39.2896 A1.39724,1.39724 0 0,0 52.7084,39.2716 " style="stroke:rgb(0,0,0);stroke-width:0.25;fill:none" />
  <path d="M52.7084,39.2716 A1.45055,1.45055 0 0,0 52.75,39.2521 " style="stroke:rgb(0,0,0);stroke-width:0.25;fill:none" />
  <path d="M52.75,39.2521 A1.50808,1.50808 0 0,0 52.7916,39.231 " style="stroke:rgb(0,0,0);stroke-width:0.25;fill:none" />
  <path d="M52.7916,39.231 A1.57035,1.57035 0 0,0 52.8336,39.2081 " style="stroke:rgb(0,0,0);stroke-width:0.25;fill:none" />
  <path d="M52.8336,39.2081 A1.63797,1.63797 0 0,0 52.8763,39.1832 " style="stroke:rgb(0,0,0);stroke-width:0.25;fill:none" />
  <path d="M52.8763,39.1832 A1.71167,1.71167 0 0,0 52.9199,39.156 " style="stroke:rgb(0,0,0);stroke-width:0.25;fill:none" />
  <path d="M52.9199,39.156 A1.79231,1.79231 0 0,0 52.9646,39.1261 " style="stroke:rgb(0,0,0);stroke-width:0.25;fill:none" />
  <path d="M52.9646,39.1261 A1.88093,1.88093 0 0,0 53.0108,39.0933 " style="stroke:rgb(0,0,0);stroke-width:0.25;fill:none" />
  <path d="M53.0108,39.0933 A1.97878,1.97878 0 0,0 53.0588,39.0571 " style="stroke:rgb(0,0,0);stroke-width:0.25;fill:none" />
  <path d="M53.0588,39.0571 A2.08737,2.08737 0 0,0 53.109,39.0169 " style="stroke:rgb(0,0,0);stroke-width:0.25;fill:none" />
  <path d="M53.109,39.0169 A2.20859,2.20859 0 0,0 53.1616,38.9719 " style="stroke:rgb(0,0,0);stroke-width:0.25;fill:none" />
  <path d="M53.1616,38.9719 A2.34478,2.34478 0 0,0 53.2173,38.9213 " style="stroke:rgb(0,0,0);stroke-width:0.25;fill:none" />
  <path d="M53.2173,38.9213 A2.49891,2.49891 0 0,0 53.2766,38.8639 " style="stroke:rgb(0,0,0);stroke-width:0.25;fill:none" />
  <path d="M53.2766,38.8639 A2.67478,2.67478 0 0,0 53.3402,38.7983 " style="stroke:rgb(0,0,0);stroke-width:0.25;fill:none" />
  <path d="M53.3402,38.7983 A2.87736,2.87736 0 0,0 53.409,38.7222 " style="stroke:rgb(0,0,0);stroke-width:0.25;fill:none" />
  <path d="M53.409,38.7222 A3.11327,3.11327 0 0,0 53.4842,38.633 " style="stroke:rgb(0,0,0);stroke-width:0.25;fill:none" />
  <path d="M53.4842,38.633 A3.39152,3.39152 0 0,0 53.5673,38.5267 " style="stroke:rgb(0,0,0);stroke-width:0.25;fill:none" />
  <path d="M53.5673,38.5267 A3.72473,3.72473 0 0,0 53.6603,38.3974 " style="stroke:rgb(0,0,0);stroke-width:0.25;fill:none" />
  <path d="M53.6603,38.3974 A4.13115,4.13115 0 0,0 53.7662,38.2362 " style="stroke:rgb(0,0,0);stroke-width:0.25;fill:none" />
  <path d="M53.7662,38.2362 A4.63829,4.63829 0 0,0 53.8893,38.0281 " style="stroke:rgb(0,0,0);stroke-width:0.25;fill:none" />
  <path d="M53.8893,38.0281 A5.28985,5.28985 0 0,0 54.0364,37.7466 " style="stroke:rgb(0,0,0);stroke-width:0.25;fill:none" />
  <path d="M54.0364,37.7466 A6.16084,6.16084 0 0,0 54.2191,37.3366 " style="stroke:rgb(0,0,0);stroke-width:0.25;fill:none" />
  <path d="M54.2191,37.3366 A7.39852,7.39852 0 0,0 54.4609,36.6523 " style="stroke:rgb(0,0,0);stroke-width:0.25;fill:none" />
  <path d="M54.4609,36.6523 A11.1447,11.1447 0 0,0 54.8868,34.2902 " style="stroke:rgb(0,0,0);stroke-width:0.25;fill:none" />
  <path d="M54.8868,34.2902 A11.1447,11.1447 0 0,0 54.7971,31.8918 " style="stroke:rgb(0,0,0);stroke-width:0.25;fill:none" />
  <path d="M54.7971,31.8918 A7.39852,7.39852 0 0,0 54.6537,31.1803 " style="stroke:rgb(0,0,0);stroke-width:0.25;fill:none" />
  <path d="M54.6537,31.1803 A6.16084,6.16084 0 0,0 54.5305,30.7487 " style="stroke:rgb(0,0,0);stroke-width:0.25;fill:none" />
  <path d="M54.5305,30.7487 A5.28985,5.28985 0 0,0 54.4244,30.4493 " style="stroke:rgb(0,0,0);stroke-width:0.25;fill:none" />
  <path d="M54.4244,30.4493 A4.63829,4.63829 0 0,0 54.3318,30.226 " style="stroke:rgb(0,0,0);stroke-width:0.25;fill:none" />
  <path d="M54.3318,30.226 A4.13115,4.13115 0 0,0 54.2496,30.0515 " style="stroke:rgb(0,0,0);stroke-width:0.25;fill:none" />
  <path d="M54.2496,30.0515 A3.72473,3.72473 0 0,0 54.1756,29.9104 " style="stroke:rgb(0,0,0);stroke-width:0.25;fill:none" />
  <path d="M54.1756,29.9104 A3.39152,3.39152 0 0,0 54.1083,29.7935 " style="stroke:rgb(0,0,0);stroke-width:0.25;fill:none" />
  <path d="M54.1083,29.7935 A3.11327,3.11327 0 0,0 54.0464,29.6946 " style="stroke:rgb(0,0,0);stroke-width:0.25;fill:none" />
  <path d="M54.0464,29.6946 A2.87736,2.87736 0 0,0 53.989,29.6096 " style="stroke:rgb(0,0,0);stroke-width:0.25;fill:none" />
  <path d="M53.989,29.6096 A2.67478,2.67478 0 0,0 53.9352,29.5356 " style="stroke:rgb(0,0,0);stroke-width:0.25;fill:none" />
  <path d="M53.9352,29.5356 A2.49891,2.49891 0 0,0 53.8846,29.4705 " style="stroke:rgb(0,0,0);stroke-width:0.25;fill:none" />
  <path d="M53.8846,29.4705 A2.34478,2.34478 0 0,0 53.8366,29.4126 " style="stroke:rgb(0,0,0);stroke-width:0.25;fill:none" />
  <path d="M53.8366,29.4126 A2.20859,2.20859 0 0,0 53.7907,29.3607 " style="stroke:rgb(0,0,0);stroke-width:0.25;fill:none" />
  <path d="M53.7907,29.3607 A2.08737,2.08737 0 0,0 53.7468,29.3138 " style="stroke:rgb(0,0,0);stroke-width:0.25;fill:none" />
  <path d="M53.7468,29.3138 A1.97878,1.97878 0 0,0 53.7043,29.2712 " style="stroke:rgb(0,0,0);stroke-width:0.25;fill:none" />
  <path d="M53.7043,29.2712 A1.88093,1.88093 0 0,0 53.6632,29.2322 " style="stroke:rgb(0,0,0);stroke-width:0.25;fill:none" />
  <path d="M53.6632,29.2322 A1.79231,1.79231 0 0,0 53.6231,29.1964 " style="stroke:rgb(0,0,0);stroke-width:0.25;fill:none" />
  <path d="M53.6231,29.1964 A1.71167,1.71167 0 0,0 53.5837,29.1633 " style="stroke:rgb(0,0,0);stroke-width:0.25;fill:none" />
  <path d="M53.5837,29.1633 A1.63797,1.63797 0 0,0 53.545,29.1327 " style="stroke:rgb(0,0,0);stroke-width:0.25;fill:none" />
  <path d="M53.545,29.1327 A1.57035,1.57035 0 0,0 53.5066,29.1041 " style="stroke:rgb(0,0,0);stroke-width:0.25;fill:none" />
  <path d="M53.5066,29.1041 A1.50808,1.50808 0 0,0 53.4684,29.0773 " style="stroke:rgb(0,0,0);stroke-width:0.25;fill:none" />
  <path d="M53.4684,29.0773 A1.45055,1.45055 0 0,0 53.43,29.0522 " style="stroke:rgb(0,0,0);stroke-width:0.25;fill:none" />
  <path d="M53.43,29.0522 A1.39724,1.39724 0 0,0 53.3912,29.0285 " style="stroke:rgb(0,0,0);stroke-width:0.25;fill:none" />
  <path d="M53.3912,29.0285 A1.34768,1.34768 0 0,0 53.3516,29.0061 " style="stroke:rgb(0,0,0);stroke-width:0.25;fill:none" />
  <path d="M53.3516,29.0061 A1.30149,1.30149 0 0,0 53.3108,28.9848 " style="stroke:rgb(0,0,0);stroke-width:0.25;fill:none" />
  <path d="M53.3108,28.9848 A1.2583,1.2583 0 0,0 53.2682,28.9644 " style="stroke:rgb(0,0,0);stroke-width:0.25;fill:none" />
  <path d="M53.2682,28.9644 A1.21781,1.21781 0 0,0 53.2228,28.9449 " style="stroke:rgb(0,0,0);stroke-width:0.25;fill:none" />
  <path d="M53.2228,28.9449 A1.17967,1.17967 0 0,0 53.1732,28.9259 " style="stroke:rgb(0,0,0);stroke-width:0.25;fill:none" />
  <path d="M53.1732,28.9259 A1.1434,1.1434 0 0,0 53.1164,28.9072 " style="stroke:rgb(0,0,0);stroke-width:0.25;fill:none" />
  <path d="M53.1164,28.9072 A1.10379,1.10379 0 0,0 53.0447,28.8883 " style="stroke:rgb(0,0,0);stroke-width:0.25;fill:none" />
  <path d="M53.0447,28.8883 A1.08557,1.08557 0 0,0 52.8775,28.8633 " style="stroke:rgb(0,0,0);stroke-width:0.25;fill:none" />
  <path d="M50.2154,36.3525 L49.1594,38.0373" style="stroke:rgb(0,0,0);stroke-width:0.25;fill:none" />
  <path d="M50.2154,36.3525 L51.9486,37.6496" style="stroke:rgb(0,0,0);stroke-width:0.25;fill:none" />
  <path d="M27.3035,54.405 L27.0605,41.2208" style="stroke:rgb(0,0,0);stroke-width:0.25;fill:none" />
  <path d="M6.72464,61.2754 L27.3035,54.405" style="stroke:rgb(0,0,0);stroke-width:0.25;fill:none" />
  <path d="M27.3035,54.405 L47.1387,61.2754" style="stroke:rgb(0,0,0);stroke-width:0.25;fill:none" />
  <path d="M21.8718,51.3012 A1.43514,1.43514 0 0,0 21.8957,51.5276 " style="stroke:rgb(0,0,0);stroke-width:0.25;fill:none" />
  <path d="M21.8957,51.5276 A1.45766,1.45766 0 0,0 21.9171,51.6248 " style="stroke:rgb(0,0,0);stroke-width:0.25;fill:none" />
  <path d="M21.9171,51.6248 A1.50649,1.50649 0 0,0 21.9391,51.7019 " style="stroke:rgb(0,0,0);stroke-width:0.25;fill:none" />
  <path d="M21.9391,51.7019 A1.55101,1.55101 0 0,0 21.9618,51.7693 " style="stroke:rgb(0,0,0);stroke-width:0.25;fill:none" />
  <path d="M21.9618,51.7693 A1.59762,1.59762 0 0,0 21.9856,51.8308 " style="stroke:rgb(0,0,0);stroke-width:0.25;fill:none" />
  <path d="M21.9856,51.8308 A1.64688,1.64688 0 0,0 22.0105,51.8885 " style="stroke:rgb(0,0,0);stroke-width:0.25;fill:none" />
  <path d="M22.0105,51.8885 A1.69915,1.69915 0 0,0 22.0368,51.9437 " style="stroke:rgb(0,0,0);stroke-width:0.25;fill:none" />
  <path d="M22.0368,51.9437 A1.75479,1.75479 0 0,0 22.0645,51.9972 " style="stroke:rgb(0,0,0);stroke-width:0.25;fill:none" />
  <path d="M22.0645,51.9972 A1.81414,1.81414 0 0,0 22.0939,52.0495 " style="stroke:rgb(0,0,0);stroke-width:0.25;fill:none" />
  <path d="M22.0939,52.0495 A1.87763,1.87763 0 0,0 22.1252,52.1011 " style="stroke:rgb(0,0,0);stroke-width:0.25;fill:none" />
  <path d="M22.1252,52.1011 A1.94569,1.94569 0 0,0 22.1585,52.1525 " style="stroke:rgb(0,0,0);stroke-width:0.25;fill:none" />
  <path d="M22.1585,52.1525 A2.01886,2.01886 0 0,0 22.1941,52.2039 " style="stroke:rgb(0,0,0);stroke-width:0.25;fill:none" />
  <path d="M22.1941,52.2039 A2.09773,2.09773 0 0,0 22.2323,52.2556 " style="stroke:rgb(0,0,0);stroke-width:0.25;fill:none" />
  <path d="M22.2323,52.2556 A2.18302,2.18302 0 0,0 22.2734,52.3079 " style="stroke:rgb(0,0,0);stroke-width:0.25;fill:none" />
  <path d="M22.2734,52.3079 A2.27553,2.27553 0 0,0 22.3178,52.3611 " style="stroke:rgb(0,0,0);stroke-width:0.25;fill:none" />
  <path d="M22.3178,52.3611 A2.37622,2.37622 0 0,0 22.366,52.4154 " style="stroke:rgb(0,0,0);stroke-width:0.25;fill:none" />
  <path d="M22.366,52.4154 A2.48624,2.48624 0 0,0 22.4185,52.4711 " style="stroke:rgb(0,0,0);stroke-width:0.25;fill:none" />
  <path d="M22.4185,52.4711 A2.60696,2.60696 0 0,0 22.476,52.5285 " style="stroke:rgb(0,0,0);stroke-width:0.25;fill:none" />
  <path d="M22.476,52.5285 A2.74,2.74 0 0,0 22.5393,52.588 " style="stroke:rgb(0,0,0);stroke-width:0.25;fill:none" />
  <path d="M22.5393,52.588 A2.88738,2.88738 0 0,0 22.6095,52.6499 " style="stroke:rgb(0,0,0);stroke-width:0.25;fill:none" />
  <path d="M22.6095,52.6499 A3.05154,3.05154 0 0,0 22.6878,52.7146 " style="stroke:rgb(0,0,0);stroke-width:0.25;fill:none" />
  <path d="M22.6878,52.7146 A3.23554,3.23554 0 0,0 22.7759,52.7827 " style="stroke:rgb(0,0,0);stroke-width:0.25;fill:none" />
  <path d="M22.7759,52.7827 A3.44322,3.44322 0 0,0 22.876,52.8548 " style="stroke:rgb(0,0,0);stroke-width:0.25;fill:none" />
  <path d="M22.876,52.8548 A3.67949,3.67949 0 0,0 22.9909,52.9314 " style="stroke:rgb(0,0,0);stroke-width:0.25;fill:none" />
  <path d="M22.9909,52.9314 A3.95072,3.95072 0 0,0 23.1247,53.0136 " style="stroke:rgb(0,0,0);stroke-width:0.25;fill:none" />
  <path d="M23.1247,53.0136 A4.26538,4.26538 0 0,0 23.2829,53.1024 " style="stroke:rgb(0,0,0);stroke-width:0.25;fill:none" />
  <path d="M23.2829,53.1024 A4.63492,4.63492 0 0,0 23.474,53.1992 " style="stroke:rgb(0,0,0);stroke-width:0.25;fill:none" />
  <path d="M23.474,53.1992 A5.07536,5.07536 0 0,0 23.7112,53.3056 " style="stroke:rgb(0,0,0);stroke-width:0.25;fill:none" />
  <path d="M23.7112,53.3056 A5.60992,5.60992 0 0,0 24.0171,53.4241 " style="stroke:rgb(0,0,0);stroke-width:0.25;fill:none" />
  <path d="M24.0171,53.4241 A6.27433,6.27433 0 0,0 24.4357,53.5574 " style="stroke:rgb(0,0,0);stroke-width:0.25;fill:none" />
  <path d="M24.4357,53.5574 A7.13088,7.13088 0 0,0 25.0783,53.7086 " style="stroke:rgb(0,0,0);stroke-width:0.25;fill:none" />
  <path d="M25.0783,53.7086 A9.27207,9.27207 0 0,0 27.0004,53.86 " style="stroke:rgb(0,0,0);stroke-width:0.25;fill:none" />
  <path d="M27.0004,53.86 A9.27207,9.27207 0 0,0 28.9123,53.6107 " style="stroke:rgb(0,0,0);stroke-width:0.25;fill:none" />
  <path d="M28.9123,53.6107 A7.13088,7.13088 0 0,0 29.5463,53.4268 " style="stroke:rgb(0,0,0);stroke-width:0.25;fill:none" />
  <path d="M29.5463,53.4268 A6.27433,6.27433 0 0,0 29.9575,53.2722 " style="stroke:rgb(0,0,0);stroke-width:0.25;fill:none" />
  <path d="M29.9575,53.2722 A5.60992,5.60992 0 0,0 30.2569,53.1383 " style="stroke:rgb(0,0,0);stroke-width:0.25;fill:none" />
  <path d="M30.2569,53.1383 A5.07536,5.07536 0 0,0 30.4884,53.0199 " style="stroke:rgb(0,0,0);stroke-width:0.25;fill:none" />
  <path d="M30.4884,53.0199 A4.63492,4.63492 0 0,0 30.6743,52.9135 " style="stroke:rgb(0,0,0);stroke-width:0.25;fill:none" />
  <path d="M30.6743,52.9135 A4.26538,4.26538 0 0,0 30.8278,52.8167 " style="stroke:rgb(0,0,0);stroke-width:0.25;fill:none" />
  <path d="M30.8278,52.8167 A3.95072,3.95072 0 0,0 30.9572,52.7278 " style="stroke:rgb(0,0,0);stroke-width:0.25;fill:none" />
  <path d="M30.9572,52.7278 A3.67949,3.67949 0 0,0 31.068,52.6454 " style="stroke:rgb(0,0,0);stroke-width:0.25;fill:none" />
  <path d="M31.068,52.6454 A3.44322,3.44322 0 0,0 31.1643,52.5683 " style="stroke:rgb(0,0,0);stroke-width:0.25;fill:none" />
  <path d="M31.1643,52.5683 A3.23554,3.23554 0 0,0 31.2488,52.4958 " style="stroke:rgb(0,0,0);stroke-width:0.25;fill:none" />
  <path d="M31.2488,52.4958 A3.05154,3.05154 0 0,0 31.3237,52.4272 " style="stroke:rgb(0,0,0);stroke-width:0.25;fill:none" />
  <path d="M31.3237,52.4272 A2.88738,2.88738 0 0,0 31.3907,52.3618 " style="stroke:rgb(0,0,0);stroke-width:0.25;fill:none" />
  <path d="M31.3907,52.3618 A2.74,2.74 0 0,0 31.4509,52.2991 " style="stroke:rgb(0,0,0);stroke-width:0.25;fill:none" />
  <path d="M31.4509,52.2991 A2.60696,2.60696 0 0,0 31.5054,52.2388 " style="stroke:rgb(0,0,0);stroke-width:0.25;fill:none" />
  <path d="M31.5054,52.2388 A2.48624,2.48624 0 0,0 31.555,52.1805 " style="stroke:rgb(0,0,0);stroke-width:0.25;fill:none" />
  <path d="M31.555,52.1805 A2.37622,2.37622 0 0,0 31.6003,52.1238 " style="stroke:rgb(0,0,0);stroke-width:0.25;fill:none" />
  <path d="M31.6003,52.1238 A2.27553,2.27553 0 0,0 31.6419,52.0684 " style="stroke:rgb(0,0,0);stroke-width:0.25;fill:none" />
  <path d="M31.6419,52.0684 A2.18302,2.18302 0 0,0 31.6803,52.0141 " style="stroke:rgb(0,0,0);stroke-width:0.25;fill:none" />
  <path d="M31.6803,52.0141 A2.09773,2.09773 0 0,0 31.7158,51.9605 " style="stroke:rgb(0,0,0);stroke-width:0.25;fill:none" />
  <path d="M31.7158,51.9605 A2.01886,2.01886 0 0,0 31.7487,51.9074 " style="stroke:rgb(0,0,0);stroke-width:0.25;fill:none" />
  <path d="M31.7487,51.9074 A1.94569,1.94569 0 0,0 31.7794,51.8544 " style="stroke:rgb(0,0,0);stroke-width:0.25;fill:none" />
  <path d="M31.7794,51.8544 A1.87763,1.87763 0 0,0 31.8079,51.8012 " style="stroke:rgb(0,0,0);stroke-width:0.25;fill:none" />
  <path d="M31.8079,51.8012 A1.81414,1.81414 0 0,0 31.8346,51.7475 " style="stroke:rgb(0,0,0);stroke-width:0.25;fill:none" />
  <path d="M31.8346,51.7475 A1.75479,1.75479 0 0,0 31.8596,51.6927 " style="stroke:rgb(0,0,0);stroke-width:0.25;fill:none" />
  <path d="M31.8596,51.6927 A1.69915,1.69915 0 0,0 31.883,51.6362 " style="stroke:rgb(0,0,0);stroke-width:0.25;fill:none" />
  <path d="M31.883,51.6362 A1.64688,1.64688 0 0,0 31.905,51.5773 " style="stroke:rgb(0,0,0);stroke-width:0.25;fill:none" />
  <path d="M31.905,51.5773 A1.59762,1.59762 0 0,0 31.9256,51.5146 " style="stroke:rgb(0,0,0);stroke-width:0.25;fill:none" />
  <path d="M31.9256,51.5146 A1.55101,1.55101 0 0,0 31.9448,51.4462 " style="stroke:rgb(0,0,0);stroke-width:0.25;fill:none" />
  <path d="M31.9448,51.4462 A1.50649,1.50649 0 0,0 31.9628,51.368 " style="stroke:rgb(0,0,0);stroke-width:0.25;fill:none" />
  <path d="M31.9628,51.368 A1.45766,1.45766 0 0,0 31.9793,51.2698 " style="stroke:rgb(0,0,0);stroke-width:0.25;fill:none" />
  <path d="M31.9793,51.2698 A1.43514,1.43514 0 0,0 31.9915,51.0425 " style="stroke:rgb(0,0,0);stroke-width:0.25;fill:none" />
  <path d="M31.9915,51.0425 A1.43514,1.43514 0 0,0 31.9677,50.8161 " style="stroke:rgb(0,0,0);stroke-width:0.25;fill:none" />
  <path d="M31.9677,50.8161 A1.45766,1.45766 0 0,0 31.9462,50.7189 " style="stroke:rgb(0,0,0);stroke-width:0.25;fill:none" />
  <path d="M31.9462,50.7189 A1.50649,1.50649 0 0,0 31.9243,50.6418 " style="stroke:rgb(0,0,0);stroke-width:0.25;fill:none" />
  <path d="M31.9243,50.6418 A1.55101,1.55101 0 0,0 31.9015,50.5744 " style="stroke:rgb(0,0,0);stroke-width:0.25;fill:none" />
  <path d="M31.9015,50.5744 A1.59762,1.59762 0 0,0 31.8778,50.5129 " style="stroke:rgb(0,0,0);stroke-width:0.25;fill:none" />
  <path d="M31.8778,50.5129 A1.64688,1.64688 0 0,0 31.8528,50.4551 " style="stroke:rgb(0,0,0);stroke-width:0.25;fill:none" />
  <path d="M31.8528,50.4551 A1.69915,1.69915 0 0,0 31.8266,50.4 " style="stroke:rgb(0,0,0);stroke-width:0.25;fill:none" />
  <path d="M31.8266,50.4 A1.75479,1.75479 0 0,0 31.7988,50.3465 " style="stroke:rgb(0,0,0);stroke-width:0.25;fill:none" />
  <path d="M31.7988,50.3465 A1.81414,1.81414 0 0,0 31.7694,50.2942 " style="stroke:rgb(0,0,0);stroke-width:0.25;fill:none" />
  <path d="M31.7694,50.2942 A1.87763,1.87763 0 0,0 31.7382,50.2425 " style="stroke:rgb(0,0,0);stroke-width:0.25;fill:none" />
  <path d="M31.7382,50.2425 A1.94569,1.94569 0 0,0 31.7049,50.1912 " style="stroke:rgb(0,0,0);stroke-width:0.25;fill:none" />
  <path d="M31.7049,50.1912 A2.01886,2.01886 0 0,0 31.6693,50.1398 " style="stroke:rgb(0,0,0);stroke-width:0.25;fill:none" />
  <path d="M31.6693,50.1398 A2.09773,2.09773 0 0,0 31.6311,50.0881 " style="stroke:rgb(0,0,0);stroke-width:0.25;fill:none" />
  <path d="M31.6311,50.0881 A2.18302,2.18302 0 0,0 31.59,50.0358 " style="stroke:rgb(0,0,0);stroke-width:0.25;fill:none" />
  <path d="M31.59,50.0358 A2.27553,2.27553 0 0,0 31.5456,49.9826 " style="stroke:rgb(0,0,0);stroke-width:0.25;fill:none" />
  <path d="M31.5456,49.9826 A2.37622,2.37622 0 0,0 31.4974,49.9283 " style="stroke:rgb(0,0,0);stroke-width:0.25;fill:none" />
  <path d="M31.4974,49.9283 A2.48624,2.48624 0 0,0 31.4449,49.8726 " style="stroke:rgb(0,0,0);stroke-width:0.25;fill:none" />
  <path d="M31.4449,49.8726 A2.60696,2.60696 0 0,0 31.3874,49.8152 " style="stroke:rgb(0,0,0);stroke-width:0.25;fill:none" />
  <path d="M31.3874,49.8152 A2.74,2.74 0 0,0 31.3241,49.7557 " style="stroke:rgb(0,0,0);stroke-width:0.25;fill:none" />
  <path d="M31.3241,49.7557 A2.88738,2.88738 0 0,0 31.2539,49.6938 " style="stroke:rgb(0,0,0);stroke-width:0.25;fill:none" />
  <path d="M31.2539,49.6938 A3.05154,3.05154 0 0,0 31.1756,49.629 " style="stroke:rgb(0,0,0);stroke-width:0.25;fill:none" />
  <path d="M31.1756,49.629 A3.23554,3.23554 0 0,0 31.0874,49.5609 " style="stroke:rgb(0,0,0);stroke-width:0.25;fill:none" />
  <path d="M31.0874,49.5609 A3.44322,3.44322 0 0,0 30.9874,49.4889 " style="stroke:rgb(0,0,0);stroke-width:0.25;fill:none" />
  <path d="M30.9874,49.4889 A3.67949,3.67949 0 0,0 30.8724,49.4122 " style="stroke:rgb(0,0,0);stroke-width:0.25;fill:none" />
  <path d="M30.8724,49.4122 A3.95072,3.95072 0 0,0 30.7387,49.3301 " style="stroke:rgb(0,0,0);stroke-width:0.25;fill:none" />
  <path d="M30.7387,49.3301 A4.26538,4.26538 0 0,0 30.5804,49.2413 " style="stroke:rgb(0,0,0);stroke-width:0.25;fill:none" />
  <path d="M30.5804,49.2413 A4.63492,4.63492 0 0,0 30.3893,49.1445 " style="stroke:rgb(0,0,0);stroke-width:0.25;fill:none" />
  <path d="M30.3893,49.1445 A5.07536,5.07536 0 0,0 30.1521,49.0381 " style="stroke:rgb(0,0,0);stroke-width:0.25;fill:none" />
  <path d="M30.1521,49.0381 A5.60992,5.60992 0 0,0 29.8463,48.9196 " style="stroke:rgb(0,0,0);stroke-width:0.25;fill:none" />
  <path d="M24.3171,48.9169 A6.27433,6.27433 0 0,0 23.9058,49.0715 " style="stroke:rgb(0,0,0);stroke-width:0.25;fill:none" />
  <path d="M23.9058,49.0715 A5.60992,5.60992 0 0,0 23.6064,49.2054 " style="stroke:rgb(0,0,0);stroke-width:0.25;fill:none" />
  <path d="M23.6064,49.2054 A5.07536,5.07536 0 0,0 23.375,49.3238 " style="stroke:rgb(0,0,0);stroke-width:0.25;fill:none" />
  <path d="M23.375,49.3238 A4.63492,4.63492 0 0,0 23.1891,49.4302 " style="stroke:rgb(0,0,0);stroke-width:0.25;fill:none" />
  <path d="M23.1891,49.4302 A4.26538,4.26538 0 0,0 23.0356,49.5269 " style="stroke:rgb(0,0,0);stroke-width:0.25;fill:none" />
  <path d="M23.0356,49.5269 A3.95072,3.95072 0 0,0 22.9062,49.6158 " style="stroke:rgb(0,0,0);stroke-width:0.25;fill:none" />
  <path d="M22.9062,49.6158 A3.67949,3.67949 0 0,0 22.7953,49.6983 " style="stroke:rgb(0,0,0);stroke-width:0.25;fill:none" />
  <path d="M22.7953,49.6983 A3.44322,3.44322 0 0,0 22.699,49.7753 " style="stroke:rgb(0,0,0);stroke-width:0.25;fill:none" />
  <path d="M22.699,49.7753 A3.23554,3.23554 0 0,0 22.6145,49.8479 " style="stroke:rgb(0,0,0);stroke-width:0.25;fill:none" />
  <path d="M22.6145,49.8479 A3.05154,3.05154 0 0,0 22.5396,49.9165 " style="stroke:rgb(0,0,0);stroke-width:0.25;fill:none" />
  <path d="M22.5396,49.9165 A2.88738,2.88738 0 0,0 22.4727,49.9819 " style="stroke:rgb(0,0,0);stroke-width:0.25;fill:none" />
  <path d="M22.4727,49.9819 A2.74,2.74 0 0,0 22.4125,50.0446 " style="stroke:rgb(0,0,0);stroke-width:0.25;fill:none" />
  <path d="M22.4125,50.0446 A2.60696,2.60696 0 0,0 22.358,50.1049 " style="stroke:rgb(0,0,0);stroke-width:0.25;fill:none" />
  <path d="M22.358,50.1049 A2.48624,2.48624 0 0,0 22.3084,50.1632 " style="stroke:rgb(0,0,0);stroke-width:0.25;fill:none" />
  <path d="M22.3084,50.1632 A2.37622,2.37622 0 0,0 22.2631,50.2199 " style="stroke:rgb(0,0,0);stroke-width:0.25;fill:none" />
  <path d="M22.2631,50.2199 A2.27553,2.27553 0 0,0 22.2214,50.2752 " style="stroke:rgb(0,0,0);stroke-width:0.25;fill:none" />
  <path d="M22.2214,50.2752 A2.18302,2.18302 0 0,0 22.183,50.3296 " style="stroke:rgb(0,0,0);stroke-width:0.25;fill:none" />
  <path d="M22.183,50.3296 A2.09773,2.09773 0 0,0 22.1475,50.3832 " style="stroke:rgb(0,0,0);stroke-width:0.25;fill:none" />
  <path d="M22.1475,50.3832 A2.01886,2.01886 0 0,0 22.1146,50.4363 " style="stroke:rgb(0,0,0);stroke-width:0.25;fill:none" />
  <path d="M22.1146,50.4363 A1.94569,1.94569 0 0,0 22.084,50.4893 " style="stroke:rgb(0,0,0);stroke-width:0.25;fill:none" />
  <path d="M22.084,50.4893 A1.87763,1.87763 0 0,0 22.0554,50.5425 " style="stroke:rgb(0,0,0);stroke-width:0.25;fill:none" />
  <path d="M22.0554,50.5425 A1.81414,1.81414 0 0,0 22.0287,50.5962 " style="stroke:rgb(0,0,0);stroke-width:0.25;fill:none" />
  <path d="M22.0287,50.5962 A1.75479,1.75479 0 0,0 22.0037,50.651 " style="stroke:rgb(0,0,0);stroke-width:0.25;fill:none" />
  <path d="M22.0037,50.651 A1.69915,1.69915 0 0,0 21.9803,50.7075 " style="stroke:rgb(0,0,0);stroke-width:0.25;fill:none" />
  <path d="M21.9803,50.7075 A1.64688,1.64688 0 0,0 21.9584,50.7664 " style="stroke:rgb(0,0,0);stroke-width:0.25;fill:none" />
  <path d="M21.9584,50.7664 A1.59762,1.59762 0 0,0 21.9378,50.8291 " style="stroke:rgb(0,0,0);stroke-width:0.25;fill:none" />
  <path d="M21.9378,50.8291 A1.55101,1.55101 0 0,0 21.9185,50.8975 " style="stroke:rgb(0,0,0);stroke-width:0.25;fill:none" />
  <path d="M21.9185,50.8975 A1.50649,1.50649 0 0,0 21.9006,50.9757 " style="stroke:rgb(0,0,0);stroke-width:0.25;fill:none" />
  <path d="M21.9006,50.9757 A1.45766,1.45766 0 0,0 21.8841,51.0738 " style="stroke:rgb(0,0,0);stroke-width:0.25;fill:none" />
  <path d="M21.8841,51.0738 A1.43514,1.43514 0 0,0 21.8718,51.3012 " style="stroke:rgb(0,0,0);stroke-width:0.25;fill:none" />
  <path d="M29.8463,48.9196 L29.9627,50.1615" style="stroke:rgb(0,0,0);stroke-width:0.25;fill:none" />
  <path d="M29.8463,48.9196 L31.037,48.5997" style="stroke:rgb(0,0,0);stroke-width:0.25;fill:none" />
</svg>
